G04*
G04 #@! TF.GenerationSoftware,Altium Limited,Altium Designer,19.0.4 (130)*
G04*
G04 Layer_Color=2752767*
%FSLAX24Y24*%
%MOIN*%
G70*
G01*
G75*
%ADD85C,0.0020*%
%ADD86C,0.0027*%
D85*
X33777Y14520D02*
Y14680D01*
X33937D01*
Y14520D01*
X33777D01*
X30923D02*
Y14680D01*
X31083D01*
Y14520D01*
X30923D01*
X38280Y23275D02*
X38200Y23435D01*
X38360D01*
X38280Y23275D01*
Y25165D02*
X38200Y25325D01*
X38360D01*
X38280Y25165D01*
X25180Y31670D02*
X25220Y31710D01*
X25260D01*
X25220Y31750D01*
X25260Y31790D01*
X25220D01*
X25180Y31830D01*
X25140Y31790D01*
X25100D01*
X25140Y31750D01*
X25100Y31710D01*
X25140D01*
X25180Y31670D01*
Y30670D02*
X25220Y30710D01*
X25260D01*
X25220Y30750D01*
X25260Y30790D01*
X25220D01*
X25180Y30830D01*
X25140Y30790D01*
X25100D01*
X25140Y30750D01*
X25100Y30710D01*
X25140D01*
X25180Y30670D01*
Y29670D02*
X25220Y29710D01*
X25260D01*
X25220Y29750D01*
X25260Y29790D01*
X25220D01*
X25180Y29830D01*
X25140Y29790D01*
X25100D01*
X25140Y29750D01*
X25100Y29710D01*
X25140D01*
X25180Y29670D01*
Y28670D02*
X25220Y28710D01*
X25260D01*
X25220Y28750D01*
X25260Y28790D01*
X25220D01*
X25180Y28830D01*
X25140Y28790D01*
X25100D01*
X25140Y28750D01*
X25100Y28710D01*
X25140D01*
X25180Y28670D01*
Y27670D02*
X25220Y27710D01*
X25260D01*
X25220Y27750D01*
X25260Y27790D01*
X25220D01*
X25180Y27830D01*
X25140Y27790D01*
X25100D01*
X25140Y27750D01*
X25100Y27710D01*
X25140D01*
X25180Y27670D01*
Y26670D02*
X25220Y26710D01*
X25260D01*
X25220Y26750D01*
X25260Y26790D01*
X25220D01*
X25180Y26830D01*
X25140Y26790D01*
X25100D01*
X25140Y26750D01*
X25100Y26710D01*
X25140D01*
X25180Y26670D01*
Y32670D02*
X25220Y32710D01*
X25260D01*
X25220Y32750D01*
X25260Y32790D01*
X25220D01*
X25180Y32830D01*
X25140Y32790D01*
X25100D01*
X25140Y32750D01*
X25100Y32710D01*
X25140D01*
X25180Y32670D01*
Y33670D02*
X25220Y33710D01*
X25260D01*
X25220Y33750D01*
X25260Y33790D01*
X25220D01*
X25180Y33830D01*
X25140Y33790D01*
X25100D01*
X25140Y33750D01*
X25100Y33710D01*
X25140D01*
X25180Y33670D01*
X36330Y33370D02*
X36370Y33410D01*
X36410D01*
X36370Y33450D01*
X36410Y33490D01*
X36370D01*
X36330Y33530D01*
X36290Y33490D01*
X36250D01*
X36290Y33450D01*
X36250Y33410D01*
X36290D01*
X36330Y33370D01*
Y32370D02*
X36370Y32410D01*
X36410D01*
X36370Y32450D01*
X36410Y32490D01*
X36370D01*
X36330Y32530D01*
X36290Y32490D01*
X36250D01*
X36290Y32450D01*
X36250Y32410D01*
X36290D01*
X36330Y32370D01*
X34330D02*
X34370Y32410D01*
X34410D01*
X34370Y32450D01*
X34410Y32490D01*
X34370D01*
X34330Y32530D01*
X34290Y32490D01*
X34250D01*
X34290Y32450D01*
X34250Y32410D01*
X34290D01*
X34330Y32370D01*
Y33370D02*
X34370Y33410D01*
X34410D01*
X34370Y33450D01*
X34410Y33490D01*
X34370D01*
X34330Y33530D01*
X34290Y33490D01*
X34250D01*
X34290Y33450D01*
X34250Y33410D01*
X34290D01*
X34330Y33370D01*
X33330D02*
X33370Y33410D01*
X33410D01*
X33370Y33450D01*
X33410Y33490D01*
X33370D01*
X33330Y33530D01*
X33290Y33490D01*
X33250D01*
X33290Y33450D01*
X33250Y33410D01*
X33290D01*
X33330Y33370D01*
Y32370D02*
X33370Y32410D01*
X33410D01*
X33370Y32450D01*
X33410Y32490D01*
X33370D01*
X33330Y32530D01*
X33290Y32490D01*
X33250D01*
X33290Y32450D01*
X33250Y32410D01*
X33290D01*
X33330Y32370D01*
X32330Y33370D02*
X32370Y33410D01*
X32410D01*
X32370Y33450D01*
X32410Y33490D01*
X32370D01*
X32330Y33530D01*
X32290Y33490D01*
X32250D01*
X32290Y33450D01*
X32250Y33410D01*
X32290D01*
X32330Y33370D01*
Y32370D02*
X32370Y32410D01*
X32410D01*
X32370Y32450D01*
X32410Y32490D01*
X32370D01*
X32330Y32530D01*
X32290Y32490D01*
X32250D01*
X32290Y32450D01*
X32250Y32410D01*
X32290D01*
X32330Y32370D01*
X31330Y33370D02*
X31370Y33410D01*
X31410D01*
X31370Y33450D01*
X31410Y33490D01*
X31370D01*
X31330Y33530D01*
X31290Y33490D01*
X31250D01*
X31290Y33450D01*
X31250Y33410D01*
X31290D01*
X31330Y33370D01*
Y32370D02*
X31370Y32410D01*
X31410D01*
X31370Y32450D01*
X31410Y32490D01*
X31370D01*
X31330Y32530D01*
X31290Y32490D01*
X31250D01*
X31290Y32450D01*
X31250Y32410D01*
X31290D01*
X31330Y32370D01*
X30330Y33370D02*
X30370Y33410D01*
X30410D01*
X30370Y33450D01*
X30410Y33490D01*
X30370D01*
X30330Y33530D01*
X30290Y33490D01*
X30250D01*
X30290Y33450D01*
X30250Y33410D01*
X30290D01*
X30330Y33370D01*
Y32370D02*
X30370Y32410D01*
X30410D01*
X30370Y32450D01*
X30410Y32490D01*
X30370D01*
X30330Y32530D01*
X30290Y32490D01*
X30250D01*
X30290Y32450D01*
X30250Y32410D01*
X30290D01*
X30330Y32370D01*
X29330Y33370D02*
X29370Y33410D01*
X29410D01*
X29370Y33450D01*
X29410Y33490D01*
X29370D01*
X29330Y33530D01*
X29290Y33490D01*
X29250D01*
X29290Y33450D01*
X29250Y33410D01*
X29290D01*
X29330Y33370D01*
Y32370D02*
X29370Y32410D01*
X29410D01*
X29370Y32450D01*
X29410Y32490D01*
X29370D01*
X29330Y32530D01*
X29290Y32490D01*
X29250D01*
X29290Y32450D01*
X29250Y32410D01*
X29290D01*
X29330Y32370D01*
X28330Y33370D02*
X28370Y33410D01*
X28410D01*
X28370Y33450D01*
X28410Y33490D01*
X28370D01*
X28330Y33530D01*
X28290Y33490D01*
X28250D01*
X28290Y33450D01*
X28250Y33410D01*
X28290D01*
X28330Y33370D01*
Y32370D02*
X28370Y32410D01*
X28410D01*
X28370Y32450D01*
X28410Y32490D01*
X28370D01*
X28330Y32530D01*
X28290Y32490D01*
X28250D01*
X28290Y32450D01*
X28250Y32410D01*
X28290D01*
X28330Y32370D01*
X35330D02*
X35370Y32410D01*
X35410D01*
X35370Y32450D01*
X35410Y32490D01*
X35370D01*
X35330Y32530D01*
X35290Y32490D01*
X35250D01*
X35290Y32450D01*
X35250Y32410D01*
X35290D01*
X35330Y32370D01*
Y33370D02*
X35370Y33410D01*
X35410D01*
X35370Y33450D01*
X35410Y33490D01*
X35370D01*
X35330Y33530D01*
X35290Y33490D01*
X35250D01*
X35290Y33450D01*
X35250Y33410D01*
X35290D01*
X35330Y33370D01*
X37330Y32370D02*
X37370Y32410D01*
X37410D01*
X37370Y32450D01*
X37410Y32490D01*
X37370D01*
X37330Y32530D01*
X37290Y32490D01*
X37250D01*
X37290Y32450D01*
X37250Y32410D01*
X37290D01*
X37330Y32370D01*
Y33370D02*
X37370Y33410D01*
X37410D01*
X37370Y33450D01*
X37410Y33490D01*
X37370D01*
X37330Y33530D01*
X37290Y33490D01*
X37250D01*
X37290Y33450D01*
X37250Y33410D01*
X37290D01*
X37330Y33370D01*
X25080Y16670D02*
X25120Y16710D01*
X25160D01*
X25120Y16750D01*
X25160Y16790D01*
X25120D01*
X25080Y16830D01*
X25040Y16790D01*
X25000D01*
X25040Y16750D01*
X25000Y16710D01*
X25040D01*
X25080Y16670D01*
X26080D02*
X26120Y16710D01*
X26160D01*
X26120Y16750D01*
X26160Y16790D01*
X26120D01*
X26080Y16830D01*
X26040Y16790D01*
X26000D01*
X26040Y16750D01*
X26000Y16710D01*
X26040D01*
X26080Y16670D01*
X25080Y15670D02*
X25120Y15710D01*
X25160D01*
X25120Y15750D01*
X25160Y15790D01*
X25120D01*
X25080Y15830D01*
X25040Y15790D01*
X25000D01*
X25040Y15750D01*
X25000Y15710D01*
X25040D01*
X25080Y15670D01*
X26080D02*
X26120Y15710D01*
X26160D01*
X26120Y15750D01*
X26160Y15790D01*
X26120D01*
X26080Y15830D01*
X26040Y15790D01*
X26000D01*
X26040Y15750D01*
X26000Y15710D01*
X26040D01*
X26080Y15670D01*
X25080Y14670D02*
X25120Y14710D01*
X25160D01*
X25120Y14750D01*
X25160Y14790D01*
X25120D01*
X25080Y14830D01*
X25040Y14790D01*
X25000D01*
X25040Y14750D01*
X25000Y14710D01*
X25040D01*
X25080Y14670D01*
X26080D02*
X26120Y14710D01*
X26160D01*
X26120Y14750D01*
X26160Y14790D01*
X26120D01*
X26080Y14830D01*
X26040Y14790D01*
X26000D01*
X26040Y14750D01*
X26000Y14710D01*
X26040D01*
X26080Y14670D01*
X23807Y33670D02*
X23847Y33750D01*
X23807Y33830D01*
X23887Y33790D01*
X23967Y33830D01*
X23927Y33750D01*
X23967Y33670D01*
X23887Y33710D01*
X23807Y33670D01*
Y32670D02*
X23847Y32750D01*
X23807Y32830D01*
X23887Y32790D01*
X23967Y32830D01*
X23927Y32750D01*
X23967Y32670D01*
X23887Y32710D01*
X23807Y32670D01*
Y31670D02*
X23847Y31750D01*
X23807Y31830D01*
X23887Y31790D01*
X23967Y31830D01*
X23927Y31750D01*
X23967Y31670D01*
X23887Y31710D01*
X23807Y31670D01*
Y30670D02*
X23847Y30750D01*
X23807Y30830D01*
X23887Y30790D01*
X23967Y30830D01*
X23927Y30750D01*
X23967Y30670D01*
X23887Y30710D01*
X23807Y30670D01*
X23887Y14670D02*
X23927Y14710D01*
X23967D01*
X23927Y14750D01*
X23967Y14790D01*
X23927D01*
X23887Y14830D01*
X23847Y14790D01*
X23807D01*
X23847Y14750D01*
X23807Y14710D01*
X23847D01*
X23887Y14670D01*
Y15670D02*
X23927Y15710D01*
X23967D01*
X23927Y15750D01*
X23967Y15790D01*
X23927D01*
X23887Y15830D01*
X23847Y15790D01*
X23807D01*
X23847Y15750D01*
X23807Y15710D01*
X23847D01*
X23887Y15670D01*
Y16670D02*
X23927Y16710D01*
X23967D01*
X23927Y16750D01*
X23967Y16790D01*
X23927D01*
X23887Y16830D01*
X23847Y16790D01*
X23807D01*
X23847Y16750D01*
X23807Y16710D01*
X23847D01*
X23887Y16670D01*
Y17670D02*
X23927Y17710D01*
X23967D01*
X23927Y17750D01*
X23967Y17790D01*
X23927D01*
X23887Y17830D01*
X23847Y17790D01*
X23807D01*
X23847Y17750D01*
X23807Y17710D01*
X23847D01*
X23887Y17670D01*
Y18670D02*
X23927Y18710D01*
X23967D01*
X23927Y18750D01*
X23967Y18790D01*
X23927D01*
X23887Y18830D01*
X23847Y18790D01*
X23807D01*
X23847Y18750D01*
X23807Y18710D01*
X23847D01*
X23887Y18670D01*
Y19670D02*
X23927Y19710D01*
X23967D01*
X23927Y19750D01*
X23967Y19790D01*
X23927D01*
X23887Y19830D01*
X23847Y19790D01*
X23807D01*
X23847Y19750D01*
X23807Y19710D01*
X23847D01*
X23887Y19670D01*
Y20670D02*
X23927Y20710D01*
X23967D01*
X23927Y20750D01*
X23967Y20790D01*
X23927D01*
X23887Y20830D01*
X23847Y20790D01*
X23807D01*
X23847Y20750D01*
X23807Y20710D01*
X23847D01*
X23887Y20670D01*
Y21670D02*
X23927Y21710D01*
X23967D01*
X23927Y21750D01*
X23967Y21790D01*
X23927D01*
X23887Y21830D01*
X23847Y21790D01*
X23807D01*
X23847Y21750D01*
X23807Y21710D01*
X23847D01*
X23887Y21670D01*
Y22670D02*
X23927Y22710D01*
X23967D01*
X23927Y22750D01*
X23967Y22790D01*
X23927D01*
X23887Y22830D01*
X23847Y22790D01*
X23807D01*
X23847Y22750D01*
X23807Y22710D01*
X23847D01*
X23887Y22670D01*
Y23670D02*
X23927Y23710D01*
X23967D01*
X23927Y23750D01*
X23967Y23790D01*
X23927D01*
X23887Y23830D01*
X23847Y23790D01*
X23807D01*
X23847Y23750D01*
X23807Y23710D01*
X23847D01*
X23887Y23670D01*
Y24670D02*
X23927Y24710D01*
X23967D01*
X23927Y24750D01*
X23967Y24790D01*
X23927D01*
X23887Y24830D01*
X23847Y24790D01*
X23807D01*
X23847Y24750D01*
X23807Y24710D01*
X23847D01*
X23887Y24670D01*
Y25670D02*
X23927Y25710D01*
X23967D01*
X23927Y25750D01*
X23967Y25790D01*
X23927D01*
X23887Y25830D01*
X23847Y25790D01*
X23807D01*
X23847Y25750D01*
X23807Y25710D01*
X23847D01*
X23887Y25670D01*
Y26670D02*
X23927Y26710D01*
X23967D01*
X23927Y26750D01*
X23967Y26790D01*
X23927D01*
X23887Y26830D01*
X23847Y26790D01*
X23807D01*
X23847Y26750D01*
X23807Y26710D01*
X23847D01*
X23887Y26670D01*
Y27670D02*
X23927Y27710D01*
X23967D01*
X23927Y27750D01*
X23967Y27790D01*
X23927D01*
X23887Y27830D01*
X23847Y27790D01*
X23807D01*
X23847Y27750D01*
X23807Y27710D01*
X23847D01*
X23887Y27670D01*
Y28670D02*
X23927Y28710D01*
X23967D01*
X23927Y28750D01*
X23967Y28790D01*
X23927D01*
X23887Y28830D01*
X23847Y28790D01*
X23807D01*
X23847Y28750D01*
X23807Y28710D01*
X23847D01*
X23887Y28670D01*
Y29670D02*
X23927Y29710D01*
X23967D01*
X23927Y29750D01*
X23967Y29790D01*
X23927D01*
X23887Y29830D01*
X23847Y29790D01*
X23807D01*
X23847Y29750D01*
X23807Y29710D01*
X23847D01*
X23887Y29670D01*
X40907Y33670D02*
X40947Y33750D01*
X40907Y33830D01*
X40987Y33790D01*
X41067Y33830D01*
X41027Y33750D01*
X41067Y33670D01*
X40987Y33710D01*
X40907Y33670D01*
Y32670D02*
X40947Y32750D01*
X40907Y32830D01*
X40987Y32790D01*
X41067Y32830D01*
X41027Y32750D01*
X41067Y32670D01*
X40987Y32710D01*
X40907Y32670D01*
Y31670D02*
X40947Y31750D01*
X40907Y31830D01*
X40987Y31790D01*
X41067Y31830D01*
X41027Y31750D01*
X41067Y31670D01*
X40987Y31710D01*
X40907Y31670D01*
Y30670D02*
X40947Y30750D01*
X40907Y30830D01*
X40987Y30790D01*
X41067Y30830D01*
X41027Y30750D01*
X41067Y30670D01*
X40987Y30710D01*
X40907Y30670D01*
X40987Y14670D02*
X41027Y14710D01*
X41067D01*
X41027Y14750D01*
X41067Y14790D01*
X41027D01*
X40987Y14830D01*
X40947Y14790D01*
X40907D01*
X40947Y14750D01*
X40907Y14710D01*
X40947D01*
X40987Y14670D01*
Y15670D02*
X41027Y15710D01*
X41067D01*
X41027Y15750D01*
X41067Y15790D01*
X41027D01*
X40987Y15830D01*
X40947Y15790D01*
X40907D01*
X40947Y15750D01*
X40907Y15710D01*
X40947D01*
X40987Y15670D01*
Y16670D02*
X41027Y16710D01*
X41067D01*
X41027Y16750D01*
X41067Y16790D01*
X41027D01*
X40987Y16830D01*
X40947Y16790D01*
X40907D01*
X40947Y16750D01*
X40907Y16710D01*
X40947D01*
X40987Y16670D01*
Y17670D02*
X41027Y17710D01*
X41067D01*
X41027Y17750D01*
X41067Y17790D01*
X41027D01*
X40987Y17830D01*
X40947Y17790D01*
X40907D01*
X40947Y17750D01*
X40907Y17710D01*
X40947D01*
X40987Y17670D01*
Y18670D02*
X41027Y18710D01*
X41067D01*
X41027Y18750D01*
X41067Y18790D01*
X41027D01*
X40987Y18830D01*
X40947Y18790D01*
X40907D01*
X40947Y18750D01*
X40907Y18710D01*
X40947D01*
X40987Y18670D01*
Y19670D02*
X41027Y19710D01*
X41067D01*
X41027Y19750D01*
X41067Y19790D01*
X41027D01*
X40987Y19830D01*
X40947Y19790D01*
X40907D01*
X40947Y19750D01*
X40907Y19710D01*
X40947D01*
X40987Y19670D01*
Y20670D02*
X41027Y20710D01*
X41067D01*
X41027Y20750D01*
X41067Y20790D01*
X41027D01*
X40987Y20830D01*
X40947Y20790D01*
X40907D01*
X40947Y20750D01*
X40907Y20710D01*
X40947D01*
X40987Y20670D01*
Y21670D02*
X41027Y21710D01*
X41067D01*
X41027Y21750D01*
X41067Y21790D01*
X41027D01*
X40987Y21830D01*
X40947Y21790D01*
X40907D01*
X40947Y21750D01*
X40907Y21710D01*
X40947D01*
X40987Y21670D01*
Y22670D02*
X41027Y22710D01*
X41067D01*
X41027Y22750D01*
X41067Y22790D01*
X41027D01*
X40987Y22830D01*
X40947Y22790D01*
X40907D01*
X40947Y22750D01*
X40907Y22710D01*
X40947D01*
X40987Y22670D01*
Y23670D02*
X41027Y23710D01*
X41067D01*
X41027Y23750D01*
X41067Y23790D01*
X41027D01*
X40987Y23830D01*
X40947Y23790D01*
X40907D01*
X40947Y23750D01*
X40907Y23710D01*
X40947D01*
X40987Y23670D01*
Y24670D02*
X41027Y24710D01*
X41067D01*
X41027Y24750D01*
X41067Y24790D01*
X41027D01*
X40987Y24830D01*
X40947Y24790D01*
X40907D01*
X40947Y24750D01*
X40907Y24710D01*
X40947D01*
X40987Y24670D01*
Y25670D02*
X41027Y25710D01*
X41067D01*
X41027Y25750D01*
X41067Y25790D01*
X41027D01*
X40987Y25830D01*
X40947Y25790D01*
X40907D01*
X40947Y25750D01*
X40907Y25710D01*
X40947D01*
X40987Y25670D01*
Y26670D02*
X41027Y26710D01*
X41067D01*
X41027Y26750D01*
X41067Y26790D01*
X41027D01*
X40987Y26830D01*
X40947Y26790D01*
X40907D01*
X40947Y26750D01*
X40907Y26710D01*
X40947D01*
X40987Y26670D01*
Y27670D02*
X41027Y27710D01*
X41067D01*
X41027Y27750D01*
X41067Y27790D01*
X41027D01*
X40987Y27830D01*
X40947Y27790D01*
X40907D01*
X40947Y27750D01*
X40907Y27710D01*
X40947D01*
X40987Y27670D01*
Y28670D02*
X41027Y28710D01*
X41067D01*
X41027Y28750D01*
X41067Y28790D01*
X41027D01*
X40987Y28830D01*
X40947Y28790D01*
X40907D01*
X40947Y28750D01*
X40907Y28710D01*
X40947D01*
X40987Y28670D01*
Y29670D02*
X41027Y29710D01*
X41067D01*
X41027Y29750D01*
X41067Y29790D01*
X41027D01*
X40987Y29830D01*
X40947Y29790D01*
X40907D01*
X40947Y29750D01*
X40907Y29710D01*
X40947D01*
X40987Y29670D01*
X38914Y29620D02*
X38954Y29660D01*
X38994D01*
X38954Y29700D01*
X38994Y29740D01*
X38954D01*
X38914Y29780D01*
X38874Y29740D01*
X38834D01*
X38874Y29700D01*
X38834Y29660D01*
X38874D01*
X38914Y29620D01*
Y30407D02*
X38954Y30447D01*
X38994D01*
X38954Y30487D01*
X38994Y30527D01*
X38954D01*
X38914Y30567D01*
X38874Y30527D01*
X38834D01*
X38874Y30487D01*
X38834Y30447D01*
X38874D01*
X38914Y30407D01*
X36946Y28833D02*
X36986Y28873D01*
X37026D01*
X36986Y28913D01*
X37026Y28953D01*
X36986D01*
X36946Y28993D01*
X36906Y28953D01*
X36866D01*
X36906Y28913D01*
X36866Y28873D01*
X36906D01*
X36946Y28833D01*
Y29620D02*
X36986Y29660D01*
X37026D01*
X36986Y29700D01*
X37026Y29740D01*
X36986D01*
X36946Y29780D01*
X36906Y29740D01*
X36866D01*
X36906Y29700D01*
X36866Y29660D01*
X36906D01*
X36946Y29620D01*
Y30407D02*
X36986Y30447D01*
X37026D01*
X36986Y30487D01*
X37026Y30527D01*
X36986D01*
X36946Y30567D01*
X36906Y30527D01*
X36866D01*
X36906Y30487D01*
X36866Y30447D01*
X36906D01*
X36946Y30407D01*
X38914Y28833D02*
X38954Y28873D01*
X38994D01*
X38954Y28913D01*
X38994Y28953D01*
X38954D01*
X38914Y28993D01*
X38874Y28953D01*
X38834D01*
X38874Y28913D01*
X38834Y28873D01*
X38874D01*
X38914Y28833D01*
X27801Y27730D02*
Y27690D01*
X27881D01*
Y27730D01*
X27921D01*
Y27810D01*
X27881D01*
Y27850D01*
X27801D01*
Y27810D01*
X27761D01*
Y27730D01*
X27801D01*
X27653Y27467D02*
Y27427D01*
X27733D01*
Y27467D01*
X27773D01*
Y27547D01*
X27733D01*
Y27587D01*
X27653D01*
Y27547D01*
X27613D01*
Y27467D01*
X27653D01*
X27340Y25210D02*
Y25170D01*
X27420D01*
Y25210D01*
X27460D01*
Y25290D01*
X27420D01*
Y25330D01*
X27340D01*
Y25290D01*
X27300D01*
Y25210D01*
X27340D01*
X31125Y30410D02*
Y30370D01*
X31205D01*
Y30410D01*
X31245D01*
Y30490D01*
X31205D01*
Y30530D01*
X31125D01*
Y30490D01*
X31085D01*
Y30410D01*
X31125D01*
X32340Y31330D02*
Y31290D01*
X32420D01*
Y31330D01*
X32460D01*
Y31410D01*
X32420D01*
Y31450D01*
X32340D01*
Y31410D01*
X32300D01*
Y31330D01*
X32340D01*
X32225Y30410D02*
Y30370D01*
X32305D01*
Y30410D01*
X32345D01*
Y30490D01*
X32305D01*
Y30530D01*
X32225D01*
Y30490D01*
X32185D01*
Y30410D01*
X32225D01*
X35240Y18290D02*
Y18250D01*
X35320D01*
Y18290D01*
X35360D01*
Y18370D01*
X35320D01*
Y18410D01*
X35240D01*
Y18370D01*
X35200D01*
Y18290D01*
X35240D01*
X36490Y16530D02*
Y16490D01*
X36570D01*
Y16530D01*
X36610D01*
Y16610D01*
X36570D01*
Y16650D01*
X36490D01*
Y16610D01*
X36450D01*
Y16530D01*
X36490D01*
X38940Y17970D02*
Y17930D01*
X39020D01*
Y17970D01*
X39060D01*
Y18050D01*
X39020D01*
Y18090D01*
X38940D01*
Y18050D01*
X38900D01*
Y17970D01*
X38940D01*
X34790Y18170D02*
Y18130D01*
X34870D01*
Y18170D01*
X34910D01*
Y18250D01*
X34870D01*
Y18290D01*
X34790D01*
Y18250D01*
X34750D01*
Y18170D01*
X34790D01*
X36490Y17090D02*
Y17050D01*
X36570D01*
Y17090D01*
X36610D01*
Y17170D01*
X36570D01*
Y17210D01*
X36490D01*
Y17170D01*
X36450D01*
Y17090D01*
X36490D01*
X36390Y15130D02*
Y15090D01*
X36470D01*
Y15130D01*
X36510D01*
Y15210D01*
X36470D01*
Y15250D01*
X36390D01*
Y15210D01*
X36350D01*
Y15130D01*
X36390D01*
X30150Y26770D02*
X30190D01*
X30230Y26810D01*
X30270Y26770D01*
X30310D01*
Y26810D01*
X30270Y26850D01*
X30310Y26890D01*
Y26930D01*
X30270D01*
X30230Y26890D01*
X30190Y26930D01*
X30150D01*
Y26890D01*
X30190Y26850D01*
X30150Y26810D01*
Y26770D01*
X29721Y25443D02*
Y25403D01*
X29801D01*
Y25443D01*
X29841D01*
Y25523D01*
X29801D01*
Y25563D01*
X29721D01*
Y25523D01*
X29681D01*
Y25443D01*
X29721D01*
X28690Y29150D02*
Y29110D01*
X28770D01*
Y29150D01*
X28810D01*
Y29230D01*
X28770D01*
Y29270D01*
X28690D01*
Y29230D01*
X28650D01*
Y29150D01*
X28690D01*
X26810Y24820D02*
Y24780D01*
X26890D01*
Y24820D01*
X26930D01*
Y24900D01*
X26890D01*
Y24940D01*
X26810D01*
Y24900D01*
X26770D01*
Y24820D01*
X26810D01*
X25940Y24850D02*
Y24810D01*
X26020D01*
Y24850D01*
X26060D01*
Y24930D01*
X26020D01*
Y24970D01*
X25940D01*
Y24930D01*
X25900D01*
Y24850D01*
X25940D01*
X26110Y28310D02*
Y28270D01*
X26190D01*
Y28310D01*
X26230D01*
Y28390D01*
X26190D01*
Y28430D01*
X26110D01*
Y28390D01*
X26070D01*
Y28310D01*
X26110D01*
X30470Y24900D02*
Y24860D01*
X30550D01*
Y24900D01*
X30590D01*
Y24980D01*
X30550D01*
Y25020D01*
X30470D01*
Y24980D01*
X30430D01*
Y24900D01*
X30470D01*
X24800Y18200D02*
Y18160D01*
X24880D01*
Y18200D01*
X24920D01*
Y18280D01*
X24880D01*
Y18320D01*
X24800D01*
Y18280D01*
X24760D01*
Y18200D01*
X24800D01*
X24300Y17180D02*
Y17140D01*
X24380D01*
Y17180D01*
X24420D01*
Y17260D01*
X24380D01*
Y17300D01*
X24300D01*
Y17260D01*
X24260D01*
Y17180D01*
X24300D01*
Y18200D02*
Y18160D01*
X24380D01*
Y18200D01*
X24420D01*
Y18280D01*
X24380D01*
Y18320D01*
X24300D01*
Y18280D01*
X24260D01*
Y18200D01*
X24300D01*
X26050Y17770D02*
Y17730D01*
X26130D01*
Y17770D01*
X26170D01*
Y17850D01*
X26130D01*
Y17890D01*
X26050D01*
Y17850D01*
X26010D01*
Y17770D01*
X26050D01*
X35710Y20420D02*
Y20380D01*
X35790D01*
Y20420D01*
X35830D01*
Y20500D01*
X35790D01*
Y20540D01*
X35710D01*
Y20500D01*
X35670D01*
Y20420D01*
X35710D01*
X32810Y23430D02*
Y23390D01*
X32890D01*
Y23430D01*
X32930D01*
Y23510D01*
X32890D01*
Y23550D01*
X32810D01*
Y23510D01*
X32770D01*
Y23430D01*
X32810D01*
X32470Y20440D02*
Y20400D01*
X32550D01*
Y20440D01*
X32590D01*
Y20520D01*
X32550D01*
Y20560D01*
X32470D01*
Y20520D01*
X32430D01*
Y20440D01*
X32470D01*
X33270Y26110D02*
Y26070D01*
X33350D01*
Y26110D01*
X33390D01*
Y26190D01*
X33350D01*
Y26230D01*
X33270D01*
Y26190D01*
X33230D01*
Y26110D01*
X33270D01*
X32760Y25550D02*
Y25510D01*
X32840D01*
Y25550D01*
X32880D01*
Y25630D01*
X32840D01*
Y25670D01*
X32760D01*
Y25630D01*
X32720D01*
Y25550D01*
X32760D01*
X32240D02*
Y25510D01*
X32320D01*
Y25550D01*
X32360D01*
Y25630D01*
X32320D01*
Y25670D01*
X32240D01*
Y25630D01*
X32200D01*
Y25550D01*
X32240D01*
X28730Y14850D02*
Y14810D01*
X28810D01*
Y14850D01*
X28850D01*
Y14930D01*
X28810D01*
Y14970D01*
X28730D01*
Y14930D01*
X28690D01*
Y14850D01*
X28730D01*
X28710Y15720D02*
Y15680D01*
X28790D01*
Y15720D01*
X28830D01*
Y15800D01*
X28790D01*
Y15840D01*
X28710D01*
Y15800D01*
X28670D01*
Y15720D01*
X28710D01*
X28720Y16470D02*
Y16430D01*
X28800D01*
Y16470D01*
X28840D01*
Y16550D01*
X28800D01*
Y16590D01*
X28720D01*
Y16550D01*
X28680D01*
Y16470D01*
X28720D01*
X28740Y17370D02*
Y17330D01*
X28820D01*
Y17370D01*
X28860D01*
Y17450D01*
X28820D01*
Y17490D01*
X28740D01*
Y17450D01*
X28700D01*
Y17370D01*
X28740D01*
X32160Y25060D02*
Y25020D01*
X32240D01*
Y25060D01*
X32280D01*
Y25140D01*
X32240D01*
Y25180D01*
X32160D01*
Y25140D01*
X32120D01*
Y25060D01*
X32160D01*
X29410Y21110D02*
Y21070D01*
X29490D01*
Y21110D01*
X29530D01*
Y21190D01*
X29490D01*
Y21230D01*
X29410D01*
Y21190D01*
X29370D01*
Y21110D01*
X29410D01*
X31700Y25640D02*
Y25600D01*
X31780D01*
Y25640D01*
X31820D01*
Y25720D01*
X31780D01*
Y25760D01*
X31700D01*
Y25720D01*
X31660D01*
Y25640D01*
X31700D01*
X28030Y21770D02*
Y21730D01*
X28110D01*
Y21770D01*
X28150D01*
Y21850D01*
X28110D01*
Y21890D01*
X28030D01*
Y21850D01*
X27990D01*
Y21770D01*
X28030D01*
Y21410D02*
Y21370D01*
X28110D01*
Y21410D01*
X28150D01*
Y21490D01*
X28110D01*
Y21530D01*
X28030D01*
Y21490D01*
X27990D01*
Y21410D01*
X28030D01*
X27770Y21770D02*
Y21730D01*
X27850D01*
Y21770D01*
X27890D01*
Y21850D01*
X27850D01*
Y21890D01*
X27770D01*
Y21850D01*
X27730D01*
Y21770D01*
X27770D01*
X27130Y28810D02*
Y28770D01*
X27210D01*
Y28810D01*
X27250D01*
Y28890D01*
X27210D01*
Y28930D01*
X27130D01*
Y28890D01*
X27090D01*
Y28810D01*
X27130D01*
X26725Y28288D02*
Y28248D01*
X26805D01*
Y28288D01*
X26845D01*
Y28368D01*
X26805D01*
Y28408D01*
X26725D01*
Y28368D01*
X26685D01*
Y28288D01*
X26725D01*
Y28810D02*
Y28770D01*
X26805D01*
Y28810D01*
X26845D01*
Y28890D01*
X26805D01*
Y28930D01*
X26725D01*
Y28890D01*
X26685D01*
Y28810D01*
X26725D01*
X26290Y29890D02*
Y29850D01*
X26370D01*
Y29890D01*
X26410D01*
Y29970D01*
X26370D01*
Y30010D01*
X26290D01*
Y29970D01*
X26250D01*
Y29890D01*
X26290D01*
Y30220D02*
Y30180D01*
X26370D01*
Y30220D01*
X26410D01*
Y30300D01*
X26370D01*
Y30340D01*
X26290D01*
Y30300D01*
X26250D01*
Y30220D01*
X26290D01*
X30410Y27240D02*
Y27200D01*
X30490D01*
Y27240D01*
X30530D01*
Y27320D01*
X30490D01*
Y27360D01*
X30410D01*
Y27320D01*
X30370D01*
Y27240D01*
X30410D01*
X36310Y22950D02*
Y22910D01*
X36390D01*
Y22950D01*
X36430D01*
Y23030D01*
X36390D01*
Y23070D01*
X36310D01*
Y23030D01*
X36270D01*
Y22950D01*
X36310D01*
X36960Y22710D02*
Y22670D01*
X37040D01*
Y22710D01*
X37080D01*
Y22790D01*
X37040D01*
Y22830D01*
X36960D01*
Y22790D01*
X36920D01*
Y22710D01*
X36960D01*
X37610Y22440D02*
Y22400D01*
X37690D01*
Y22440D01*
X37730D01*
Y22520D01*
X37690D01*
Y22560D01*
X37610D01*
Y22520D01*
X37570D01*
Y22440D01*
X37610D01*
X38200Y22180D02*
Y22140D01*
X38280D01*
Y22180D01*
X38320D01*
Y22260D01*
X38280D01*
Y22300D01*
X38200D01*
Y22260D01*
X38160D01*
Y22180D01*
X38200D01*
X38840Y22510D02*
Y22470D01*
X38920D01*
Y22510D01*
X38960D01*
Y22590D01*
X38920D01*
Y22630D01*
X38840D01*
Y22590D01*
X38800D01*
Y22510D01*
X38840D01*
X39400Y23690D02*
Y23650D01*
X39480D01*
Y23690D01*
X39520D01*
Y23770D01*
X39480D01*
Y23810D01*
X39400D01*
Y23770D01*
X39360D01*
Y23690D01*
X39400D01*
X39410Y24460D02*
Y24420D01*
X39490D01*
Y24460D01*
X39530D01*
Y24540D01*
X39490D01*
Y24580D01*
X39410D01*
Y24540D01*
X39370D01*
Y24460D01*
X39410D01*
X39380Y25520D02*
Y25480D01*
X39460D01*
Y25520D01*
X39500D01*
Y25600D01*
X39460D01*
Y25640D01*
X39380D01*
Y25600D01*
X39340D01*
Y25520D01*
X39380D01*
X38460Y26220D02*
Y26180D01*
X38540D01*
Y26220D01*
X38580D01*
Y26300D01*
X38540D01*
Y26340D01*
X38460D01*
Y26300D01*
X38420D01*
Y26220D01*
X38460D01*
X37265Y25955D02*
Y25915D01*
X37345D01*
Y25955D01*
X37385D01*
Y26035D01*
X37345D01*
Y26075D01*
X37265D01*
Y26035D01*
X37225D01*
Y25955D01*
X37265D01*
X36390Y25580D02*
Y25540D01*
X36470D01*
Y25580D01*
X36510D01*
Y25660D01*
X36470D01*
Y25700D01*
X36390D01*
Y25660D01*
X36350D01*
Y25580D01*
X36390D01*
X34040Y25910D02*
Y25870D01*
X34120D01*
Y25910D01*
X34160D01*
Y25990D01*
X34120D01*
Y26030D01*
X34040D01*
Y25990D01*
X34000D01*
Y25910D01*
X34040D01*
X36050Y26590D02*
Y26550D01*
X36130D01*
Y26590D01*
X36170D01*
Y26670D01*
X36130D01*
Y26710D01*
X36050D01*
Y26670D01*
X36010D01*
Y26590D01*
X36050D01*
X33810Y25600D02*
Y25560D01*
X33890D01*
Y25600D01*
X33930D01*
Y25680D01*
X33890D01*
Y25720D01*
X33810D01*
Y25680D01*
X33770D01*
Y25600D01*
X33810D01*
Y26130D02*
Y26090D01*
X33890D01*
Y26130D01*
X33930D01*
Y26210D01*
X33890D01*
Y26250D01*
X33810D01*
Y26210D01*
X33770D01*
Y26130D01*
X33810D01*
X35360Y30500D02*
Y30460D01*
X35440D01*
Y30500D01*
X35480D01*
Y30580D01*
X35440D01*
Y30620D01*
X35360D01*
Y30580D01*
X35320D01*
Y30500D01*
X35360D01*
X35930Y19090D02*
Y19050D01*
X36010D01*
Y19090D01*
X36050D01*
Y19170D01*
X36010D01*
Y19210D01*
X35930D01*
Y19170D01*
X35890D01*
Y19090D01*
X35930D01*
X39550Y16710D02*
Y16670D01*
X39630D01*
Y16710D01*
X39670D01*
Y16790D01*
X39630D01*
Y16830D01*
X39550D01*
Y16790D01*
X39510D01*
Y16710D01*
X39550D01*
X32840Y24630D02*
Y24590D01*
X32920D01*
Y24630D01*
X32960D01*
Y24710D01*
X32920D01*
Y24750D01*
X32840D01*
Y24710D01*
X32800D01*
Y24630D01*
X32840D01*
X32580Y24810D02*
Y24770D01*
X32660D01*
Y24810D01*
X32700D01*
Y24890D01*
X32660D01*
Y24930D01*
X32580D01*
Y24890D01*
X32540D01*
Y24810D01*
X32580D01*
X39110Y15170D02*
Y15130D01*
X39190D01*
Y15170D01*
X39230D01*
Y15250D01*
X39190D01*
Y15290D01*
X39110D01*
Y15250D01*
X39070D01*
Y15170D01*
X39110D01*
X31900Y18470D02*
Y18430D01*
X31980D01*
Y18470D01*
X32020D01*
Y18550D01*
X31980D01*
Y18590D01*
X31900D01*
Y18550D01*
X31860D01*
Y18470D01*
X31900D01*
X32690Y18220D02*
Y18180D01*
X32770D01*
Y18220D01*
X32810D01*
Y18300D01*
X32770D01*
Y18340D01*
X32690D01*
Y18300D01*
X32650D01*
Y18220D01*
X32690D01*
X30940Y23970D02*
Y23930D01*
X31020D01*
Y23970D01*
X31060D01*
Y24050D01*
X31020D01*
Y24090D01*
X30940D01*
Y24050D01*
X30900D01*
Y23970D01*
X30940D01*
X30650Y23790D02*
Y23750D01*
X30730D01*
Y23790D01*
X30770D01*
Y23870D01*
X30730D01*
Y23910D01*
X30650D01*
Y23870D01*
X30610D01*
Y23790D01*
X30650D01*
X29600Y26370D02*
Y26330D01*
X29680D01*
Y26370D01*
X29720D01*
Y26450D01*
X29680D01*
Y26490D01*
X29600D01*
Y26450D01*
X29560D01*
Y26370D01*
X29600D01*
X29540Y26080D02*
Y26040D01*
X29620D01*
Y26080D01*
X29660D01*
Y26160D01*
X29620D01*
Y26200D01*
X29540D01*
Y26160D01*
X29500D01*
Y26080D01*
X29540D01*
X28860Y27590D02*
Y27550D01*
X28940D01*
Y27590D01*
X28980D01*
Y27670D01*
X28940D01*
Y27710D01*
X28860D01*
Y27670D01*
X28820D01*
Y27590D01*
X28860D01*
X28440Y28040D02*
Y28000D01*
X28520D01*
Y28040D01*
X28560D01*
Y28120D01*
X28520D01*
Y28160D01*
X28440D01*
Y28120D01*
X28400D01*
Y28040D01*
X28440D01*
X29310Y25760D02*
Y25720D01*
X29390D01*
Y25760D01*
X29430D01*
Y25840D01*
X29390D01*
Y25880D01*
X29310D01*
Y25840D01*
X29270D01*
Y25760D01*
X29310D01*
X31920Y25880D02*
Y25840D01*
X32000D01*
Y25880D01*
X32040D01*
Y25960D01*
X32000D01*
Y26000D01*
X31920D01*
Y25960D01*
X31880D01*
Y25880D01*
X31920D01*
X32150Y26180D02*
Y26140D01*
X32230D01*
Y26180D01*
X32270D01*
Y26260D01*
X32230D01*
Y26300D01*
X32150D01*
Y26260D01*
X32110D01*
Y26180D01*
X32150D01*
X32330Y26450D02*
Y26410D01*
X32410D01*
Y26450D01*
X32450D01*
Y26530D01*
X32410D01*
Y26570D01*
X32330D01*
Y26530D01*
X32290D01*
Y26450D01*
X32330D01*
X32720Y26960D02*
Y26920D01*
X32800D01*
Y26960D01*
X32840D01*
Y27040D01*
X32800D01*
Y27080D01*
X32720D01*
Y27040D01*
X32680D01*
Y26960D01*
X32720D01*
X30600Y17800D02*
Y17760D01*
X30680D01*
Y17800D01*
X30720D01*
Y17880D01*
X30680D01*
Y17920D01*
X30600D01*
Y17880D01*
X30560D01*
Y17800D01*
X30600D01*
X30330D02*
Y17760D01*
X30410D01*
Y17800D01*
X30450D01*
Y17880D01*
X30410D01*
Y17920D01*
X30330D01*
Y17880D01*
X30290D01*
Y17800D01*
X30330D01*
X28530Y29310D02*
Y29270D01*
X28610D01*
Y29310D01*
X28650D01*
Y29390D01*
X28610D01*
Y29430D01*
X28530D01*
Y29390D01*
X28490D01*
Y29310D01*
X28530D01*
X26570Y32610D02*
Y32570D01*
X26650D01*
Y32610D01*
X26690D01*
Y32690D01*
X26650D01*
Y32730D01*
X26570D01*
Y32690D01*
X26530D01*
Y32610D01*
X26570D01*
X30850Y31060D02*
Y31020D01*
X30930D01*
Y31060D01*
X30970D01*
Y31140D01*
X30930D01*
Y31180D01*
X30850D01*
Y31140D01*
X30810D01*
Y31060D01*
X30850D01*
X39520Y20860D02*
Y20820D01*
X39600D01*
Y20860D01*
X39640D01*
Y20940D01*
X39600D01*
Y20980D01*
X39520D01*
Y20940D01*
X39480D01*
Y20860D01*
X39520D01*
X29140Y19270D02*
X29180D01*
X29220Y19310D01*
X29260Y19270D01*
X29300D01*
Y19310D01*
X29260Y19350D01*
X29300Y19390D01*
Y19430D01*
X29260D01*
X29220Y19390D01*
X29180Y19430D01*
X29140D01*
Y19390D01*
X29180Y19350D01*
X29140Y19310D01*
Y19270D01*
X33670Y29570D02*
X33710D01*
X33750Y29610D01*
X33790Y29570D01*
X33830D01*
Y29610D01*
X33790Y29650D01*
X33830Y29690D01*
Y29730D01*
X33790D01*
X33750Y29690D01*
X33710Y29730D01*
X33670D01*
Y29690D01*
X33710Y29650D01*
X33670Y29610D01*
Y29570D01*
X35030Y30010D02*
X35070D01*
X35110Y30050D01*
X35150Y30010D01*
X35190D01*
Y30050D01*
X35150Y30090D01*
X35190Y30130D01*
Y30170D01*
X35150D01*
X35110Y30130D01*
X35070Y30170D01*
X35030D01*
Y30130D01*
X35070Y30090D01*
X35030Y30050D01*
Y30010D01*
X26950Y23125D02*
X26990D01*
X27030Y23165D01*
X27070Y23125D01*
X27110D01*
Y23165D01*
X27070Y23205D01*
X27110Y23245D01*
Y23285D01*
X27070D01*
X27030Y23245D01*
X26990Y23285D01*
X26950D01*
Y23245D01*
X26990Y23205D01*
X26950Y23165D01*
Y23125D01*
X26610Y23130D02*
X26650D01*
X26690Y23170D01*
X26730Y23130D01*
X26770D01*
Y23170D01*
X26730Y23210D01*
X26770Y23250D01*
Y23290D01*
X26730D01*
X26690Y23250D01*
X26650Y23290D01*
X26610D01*
Y23250D01*
X26650Y23210D01*
X26610Y23170D01*
Y23130D01*
X26290Y23125D02*
X26330D01*
X26370Y23165D01*
X26410Y23125D01*
X26450D01*
Y23165D01*
X26410Y23205D01*
X26450Y23245D01*
Y23285D01*
X26410D01*
X26370Y23245D01*
X26330Y23285D01*
X26290D01*
Y23245D01*
X26330Y23205D01*
X26290Y23165D01*
Y23125D01*
X25200Y20440D02*
X25240D01*
X25280Y20480D01*
X25320Y20440D01*
X25360D01*
Y20480D01*
X25320Y20520D01*
X25360Y20560D01*
Y20600D01*
X25320D01*
X25280Y20560D01*
X25240Y20600D01*
X25200D01*
Y20560D01*
X25240Y20520D01*
X25200Y20480D01*
Y20440D01*
X35510Y28780D02*
X35550D01*
X35590Y28820D01*
X35630Y28780D01*
X35670D01*
Y28820D01*
X35630Y28860D01*
X35670Y28900D01*
Y28940D01*
X35630D01*
X35590Y28900D01*
X35550Y28940D01*
X35510D01*
Y28900D01*
X35550Y28860D01*
X35510Y28820D01*
Y28780D01*
X39420Y31500D02*
X39460D01*
X39500Y31540D01*
X39540Y31500D01*
X39580D01*
Y31540D01*
X39540Y31580D01*
X39580Y31620D01*
Y31660D01*
X39540D01*
X39500Y31620D01*
X39460Y31660D01*
X39420D01*
Y31620D01*
X39460Y31580D01*
X39420Y31540D01*
Y31500D01*
X38320Y33880D02*
X38360D01*
X38400Y33920D01*
X38440Y33880D01*
X38480D01*
Y33920D01*
X38440Y33960D01*
X38480Y34000D01*
Y34040D01*
X38440D01*
X38400Y34000D01*
X38360Y34040D01*
X38320D01*
Y34000D01*
X38360Y33960D01*
X38320Y33920D01*
Y33880D01*
X26300Y33500D02*
X26340D01*
X26380Y33540D01*
X26420Y33500D01*
X26460D01*
Y33540D01*
X26420Y33580D01*
X26460Y33620D01*
Y33660D01*
X26420D01*
X26380Y33620D01*
X26340Y33660D01*
X26300D01*
Y33620D01*
X26340Y33580D01*
X26300Y33540D01*
Y33500D01*
X30020Y21740D02*
X30060D01*
X30100Y21780D01*
X30140Y21740D01*
X30180D01*
Y21780D01*
X30140Y21820D01*
X30180Y21860D01*
Y21900D01*
X30140D01*
X30100Y21860D01*
X30060Y21900D01*
X30020D01*
Y21860D01*
X30060Y21820D01*
X30020Y21780D01*
Y21740D01*
X30050Y22210D02*
X30090D01*
X30130Y22250D01*
X30170Y22210D01*
X30210D01*
Y22250D01*
X30170Y22290D01*
X30210Y22330D01*
Y22370D01*
X30170D01*
X30130Y22330D01*
X30090Y22370D01*
X30050D01*
Y22330D01*
X30090Y22290D01*
X30050Y22250D01*
Y22210D01*
X35920Y21230D02*
Y21190D01*
X36000D01*
Y21230D01*
X36040D01*
Y21310D01*
X36000D01*
Y21350D01*
X35920D01*
Y21310D01*
X35880D01*
Y21230D01*
X35920D01*
X35150Y14240D02*
Y14200D01*
X35230D01*
Y14240D01*
X35270D01*
Y14320D01*
X35230D01*
Y14360D01*
X35150D01*
Y14320D01*
X35110D01*
Y14240D01*
X35150D01*
X34780Y14540D02*
Y14500D01*
X34860D01*
Y14540D01*
X34900D01*
Y14620D01*
X34860D01*
Y14660D01*
X34780D01*
Y14620D01*
X34740D01*
Y14540D01*
X34780D01*
X34720Y14160D02*
Y14120D01*
X34800D01*
Y14160D01*
X34840D01*
Y14240D01*
X34800D01*
Y14280D01*
X34720D01*
Y14240D01*
X34680D01*
Y14160D01*
X34720D01*
X35230Y14040D02*
Y14000D01*
X35310D01*
Y14040D01*
X35350D01*
Y14120D01*
X35310D01*
Y14160D01*
X35230D01*
Y14120D01*
X35190D01*
Y14040D01*
X35230D01*
X34270Y15440D02*
Y15400D01*
X34350D01*
Y15440D01*
X34390D01*
Y15520D01*
X34350D01*
Y15560D01*
X34270D01*
Y15520D01*
X34230D01*
Y15440D01*
X34270D01*
X33930Y16050D02*
Y16010D01*
X34010D01*
Y16050D01*
X34050D01*
Y16130D01*
X34010D01*
Y16170D01*
X33930D01*
Y16130D01*
X33890D01*
Y16050D01*
X33930D01*
X29230Y15730D02*
Y15690D01*
X29310D01*
Y15730D01*
X29350D01*
Y15810D01*
X29310D01*
Y15850D01*
X29230D01*
Y15810D01*
X29190D01*
Y15730D01*
X29230D01*
X29700Y15750D02*
Y15710D01*
X29780D01*
Y15750D01*
X29820D01*
Y15830D01*
X29780D01*
Y15870D01*
X29700D01*
Y15830D01*
X29660D01*
Y15750D01*
X29700D01*
X30170Y15740D02*
Y15700D01*
X30250D01*
Y15740D01*
X30290D01*
Y15820D01*
X30250D01*
Y15860D01*
X30170D01*
Y15820D01*
X30130D01*
Y15740D01*
X30170D01*
X30120Y15390D02*
Y15350D01*
X30200D01*
Y15390D01*
X30240D01*
Y15470D01*
X30200D01*
Y15510D01*
X30120D01*
Y15470D01*
X30080D01*
Y15390D01*
X30120D01*
X29720D02*
Y15350D01*
X29800D01*
Y15390D01*
X29840D01*
Y15470D01*
X29800D01*
Y15510D01*
X29720D01*
Y15470D01*
X29680D01*
Y15390D01*
X29720D01*
X29710Y14970D02*
Y14930D01*
X29790D01*
Y14970D01*
X29830D01*
Y15050D01*
X29790D01*
Y15090D01*
X29710D01*
Y15050D01*
X29670D01*
Y14970D01*
X29710D01*
X30080Y14900D02*
Y14860D01*
X30160D01*
Y14900D01*
X30200D01*
Y14980D01*
X30160D01*
Y15020D01*
X30080D01*
Y14980D01*
X30040D01*
Y14900D01*
X30080D01*
X30360Y14210D02*
Y14170D01*
X30440D01*
Y14210D01*
X30480D01*
Y14290D01*
X30440D01*
Y14330D01*
X30360D01*
Y14290D01*
X30320D01*
Y14210D01*
X30360D01*
X30410Y14480D02*
Y14440D01*
X30490D01*
Y14480D01*
X30530D01*
Y14560D01*
X30490D01*
Y14600D01*
X30410D01*
Y14560D01*
X30370D01*
Y14480D01*
X30410D01*
X27770Y21410D02*
Y21370D01*
X27850D01*
Y21410D01*
X27890D01*
Y21490D01*
X27850D01*
Y21530D01*
X27770D01*
Y21490D01*
X27730D01*
Y21410D01*
X27770D01*
X24480Y27580D02*
Y27540D01*
X24560D01*
Y27580D01*
X24600D01*
Y27660D01*
X24560D01*
Y27700D01*
X24480D01*
Y27660D01*
X24440D01*
Y27580D01*
X24480D01*
X24500Y27950D02*
Y27910D01*
X24580D01*
Y27950D01*
X24620D01*
Y28030D01*
X24580D01*
Y28070D01*
X24500D01*
Y28030D01*
X24460D01*
Y27950D01*
X24500D01*
X36110Y28870D02*
Y28830D01*
X36190D01*
Y28870D01*
X36230D01*
Y28950D01*
X36190D01*
Y28990D01*
X36110D01*
Y28950D01*
X36070D01*
Y28870D01*
X36110D01*
X31270Y20120D02*
Y20080D01*
X31350D01*
Y20120D01*
X31390D01*
Y20200D01*
X31350D01*
Y20240D01*
X31270D01*
Y20200D01*
X31230D01*
Y20120D01*
X31270D01*
X52777Y14520D02*
Y14680D01*
X52937D01*
Y14520D01*
X52777D01*
X49923D02*
Y14680D01*
X50083D01*
Y14520D01*
X49923D01*
X57280Y23275D02*
X57200Y23435D01*
X57360D01*
X57280Y23275D01*
Y25165D02*
X57200Y25325D01*
X57360D01*
X57280Y25165D01*
X44180Y31670D02*
X44220Y31710D01*
X44260D01*
X44220Y31750D01*
X44260Y31790D01*
X44220D01*
X44180Y31830D01*
X44140Y31790D01*
X44100D01*
X44140Y31750D01*
X44100Y31710D01*
X44140D01*
X44180Y31670D01*
Y30670D02*
X44220Y30710D01*
X44260D01*
X44220Y30750D01*
X44260Y30790D01*
X44220D01*
X44180Y30830D01*
X44140Y30790D01*
X44100D01*
X44140Y30750D01*
X44100Y30710D01*
X44140D01*
X44180Y30670D01*
Y29670D02*
X44220Y29710D01*
X44260D01*
X44220Y29750D01*
X44260Y29790D01*
X44220D01*
X44180Y29830D01*
X44140Y29790D01*
X44100D01*
X44140Y29750D01*
X44100Y29710D01*
X44140D01*
X44180Y29670D01*
Y28670D02*
X44220Y28710D01*
X44260D01*
X44220Y28750D01*
X44260Y28790D01*
X44220D01*
X44180Y28830D01*
X44140Y28790D01*
X44100D01*
X44140Y28750D01*
X44100Y28710D01*
X44140D01*
X44180Y28670D01*
Y27670D02*
X44220Y27710D01*
X44260D01*
X44220Y27750D01*
X44260Y27790D01*
X44220D01*
X44180Y27830D01*
X44140Y27790D01*
X44100D01*
X44140Y27750D01*
X44100Y27710D01*
X44140D01*
X44180Y27670D01*
Y26670D02*
X44220Y26710D01*
X44260D01*
X44220Y26750D01*
X44260Y26790D01*
X44220D01*
X44180Y26830D01*
X44140Y26790D01*
X44100D01*
X44140Y26750D01*
X44100Y26710D01*
X44140D01*
X44180Y26670D01*
Y32670D02*
X44220Y32710D01*
X44260D01*
X44220Y32750D01*
X44260Y32790D01*
X44220D01*
X44180Y32830D01*
X44140Y32790D01*
X44100D01*
X44140Y32750D01*
X44100Y32710D01*
X44140D01*
X44180Y32670D01*
Y33670D02*
X44220Y33710D01*
X44260D01*
X44220Y33750D01*
X44260Y33790D01*
X44220D01*
X44180Y33830D01*
X44140Y33790D01*
X44100D01*
X44140Y33750D01*
X44100Y33710D01*
X44140D01*
X44180Y33670D01*
X55330Y33370D02*
X55370Y33410D01*
X55410D01*
X55370Y33450D01*
X55410Y33490D01*
X55370D01*
X55330Y33530D01*
X55290Y33490D01*
X55250D01*
X55290Y33450D01*
X55250Y33410D01*
X55290D01*
X55330Y33370D01*
Y32370D02*
X55370Y32410D01*
X55410D01*
X55370Y32450D01*
X55410Y32490D01*
X55370D01*
X55330Y32530D01*
X55290Y32490D01*
X55250D01*
X55290Y32450D01*
X55250Y32410D01*
X55290D01*
X55330Y32370D01*
X53330D02*
X53370Y32410D01*
X53410D01*
X53370Y32450D01*
X53410Y32490D01*
X53370D01*
X53330Y32530D01*
X53290Y32490D01*
X53250D01*
X53290Y32450D01*
X53250Y32410D01*
X53290D01*
X53330Y32370D01*
Y33370D02*
X53370Y33410D01*
X53410D01*
X53370Y33450D01*
X53410Y33490D01*
X53370D01*
X53330Y33530D01*
X53290Y33490D01*
X53250D01*
X53290Y33450D01*
X53250Y33410D01*
X53290D01*
X53330Y33370D01*
X52330D02*
X52370Y33410D01*
X52410D01*
X52370Y33450D01*
X52410Y33490D01*
X52370D01*
X52330Y33530D01*
X52290Y33490D01*
X52250D01*
X52290Y33450D01*
X52250Y33410D01*
X52290D01*
X52330Y33370D01*
Y32370D02*
X52370Y32410D01*
X52410D01*
X52370Y32450D01*
X52410Y32490D01*
X52370D01*
X52330Y32530D01*
X52290Y32490D01*
X52250D01*
X52290Y32450D01*
X52250Y32410D01*
X52290D01*
X52330Y32370D01*
X51330Y33370D02*
X51370Y33410D01*
X51410D01*
X51370Y33450D01*
X51410Y33490D01*
X51370D01*
X51330Y33530D01*
X51290Y33490D01*
X51250D01*
X51290Y33450D01*
X51250Y33410D01*
X51290D01*
X51330Y33370D01*
Y32370D02*
X51370Y32410D01*
X51410D01*
X51370Y32450D01*
X51410Y32490D01*
X51370D01*
X51330Y32530D01*
X51290Y32490D01*
X51250D01*
X51290Y32450D01*
X51250Y32410D01*
X51290D01*
X51330Y32370D01*
X50330Y33370D02*
X50370Y33410D01*
X50410D01*
X50370Y33450D01*
X50410Y33490D01*
X50370D01*
X50330Y33530D01*
X50290Y33490D01*
X50250D01*
X50290Y33450D01*
X50250Y33410D01*
X50290D01*
X50330Y33370D01*
Y32370D02*
X50370Y32410D01*
X50410D01*
X50370Y32450D01*
X50410Y32490D01*
X50370D01*
X50330Y32530D01*
X50290Y32490D01*
X50250D01*
X50290Y32450D01*
X50250Y32410D01*
X50290D01*
X50330Y32370D01*
X49330Y33370D02*
X49370Y33410D01*
X49410D01*
X49370Y33450D01*
X49410Y33490D01*
X49370D01*
X49330Y33530D01*
X49290Y33490D01*
X49250D01*
X49290Y33450D01*
X49250Y33410D01*
X49290D01*
X49330Y33370D01*
Y32370D02*
X49370Y32410D01*
X49410D01*
X49370Y32450D01*
X49410Y32490D01*
X49370D01*
X49330Y32530D01*
X49290Y32490D01*
X49250D01*
X49290Y32450D01*
X49250Y32410D01*
X49290D01*
X49330Y32370D01*
X48330Y33370D02*
X48370Y33410D01*
X48410D01*
X48370Y33450D01*
X48410Y33490D01*
X48370D01*
X48330Y33530D01*
X48290Y33490D01*
X48250D01*
X48290Y33450D01*
X48250Y33410D01*
X48290D01*
X48330Y33370D01*
Y32370D02*
X48370Y32410D01*
X48410D01*
X48370Y32450D01*
X48410Y32490D01*
X48370D01*
X48330Y32530D01*
X48290Y32490D01*
X48250D01*
X48290Y32450D01*
X48250Y32410D01*
X48290D01*
X48330Y32370D01*
X47330Y33370D02*
X47370Y33410D01*
X47410D01*
X47370Y33450D01*
X47410Y33490D01*
X47370D01*
X47330Y33530D01*
X47290Y33490D01*
X47250D01*
X47290Y33450D01*
X47250Y33410D01*
X47290D01*
X47330Y33370D01*
Y32370D02*
X47370Y32410D01*
X47410D01*
X47370Y32450D01*
X47410Y32490D01*
X47370D01*
X47330Y32530D01*
X47290Y32490D01*
X47250D01*
X47290Y32450D01*
X47250Y32410D01*
X47290D01*
X47330Y32370D01*
X54330D02*
X54370Y32410D01*
X54410D01*
X54370Y32450D01*
X54410Y32490D01*
X54370D01*
X54330Y32530D01*
X54290Y32490D01*
X54250D01*
X54290Y32450D01*
X54250Y32410D01*
X54290D01*
X54330Y32370D01*
Y33370D02*
X54370Y33410D01*
X54410D01*
X54370Y33450D01*
X54410Y33490D01*
X54370D01*
X54330Y33530D01*
X54290Y33490D01*
X54250D01*
X54290Y33450D01*
X54250Y33410D01*
X54290D01*
X54330Y33370D01*
X56330Y32370D02*
X56370Y32410D01*
X56410D01*
X56370Y32450D01*
X56410Y32490D01*
X56370D01*
X56330Y32530D01*
X56290Y32490D01*
X56250D01*
X56290Y32450D01*
X56250Y32410D01*
X56290D01*
X56330Y32370D01*
Y33370D02*
X56370Y33410D01*
X56410D01*
X56370Y33450D01*
X56410Y33490D01*
X56370D01*
X56330Y33530D01*
X56290Y33490D01*
X56250D01*
X56290Y33450D01*
X56250Y33410D01*
X56290D01*
X56330Y33370D01*
X44080Y16670D02*
X44120Y16710D01*
X44160D01*
X44120Y16750D01*
X44160Y16790D01*
X44120D01*
X44080Y16830D01*
X44040Y16790D01*
X44000D01*
X44040Y16750D01*
X44000Y16710D01*
X44040D01*
X44080Y16670D01*
X45080D02*
X45120Y16710D01*
X45160D01*
X45120Y16750D01*
X45160Y16790D01*
X45120D01*
X45080Y16830D01*
X45040Y16790D01*
X45000D01*
X45040Y16750D01*
X45000Y16710D01*
X45040D01*
X45080Y16670D01*
X44080Y15670D02*
X44120Y15710D01*
X44160D01*
X44120Y15750D01*
X44160Y15790D01*
X44120D01*
X44080Y15830D01*
X44040Y15790D01*
X44000D01*
X44040Y15750D01*
X44000Y15710D01*
X44040D01*
X44080Y15670D01*
X45080D02*
X45120Y15710D01*
X45160D01*
X45120Y15750D01*
X45160Y15790D01*
X45120D01*
X45080Y15830D01*
X45040Y15790D01*
X45000D01*
X45040Y15750D01*
X45000Y15710D01*
X45040D01*
X45080Y15670D01*
X44080Y14670D02*
X44120Y14710D01*
X44160D01*
X44120Y14750D01*
X44160Y14790D01*
X44120D01*
X44080Y14830D01*
X44040Y14790D01*
X44000D01*
X44040Y14750D01*
X44000Y14710D01*
X44040D01*
X44080Y14670D01*
X45080D02*
X45120Y14710D01*
X45160D01*
X45120Y14750D01*
X45160Y14790D01*
X45120D01*
X45080Y14830D01*
X45040Y14790D01*
X45000D01*
X45040Y14750D01*
X45000Y14710D01*
X45040D01*
X45080Y14670D01*
X42807Y33670D02*
X42847Y33750D01*
X42807Y33830D01*
X42887Y33790D01*
X42967Y33830D01*
X42927Y33750D01*
X42967Y33670D01*
X42887Y33710D01*
X42807Y33670D01*
Y32670D02*
X42847Y32750D01*
X42807Y32830D01*
X42887Y32790D01*
X42967Y32830D01*
X42927Y32750D01*
X42967Y32670D01*
X42887Y32710D01*
X42807Y32670D01*
Y31670D02*
X42847Y31750D01*
X42807Y31830D01*
X42887Y31790D01*
X42967Y31830D01*
X42927Y31750D01*
X42967Y31670D01*
X42887Y31710D01*
X42807Y31670D01*
Y30670D02*
X42847Y30750D01*
X42807Y30830D01*
X42887Y30790D01*
X42967Y30830D01*
X42927Y30750D01*
X42967Y30670D01*
X42887Y30710D01*
X42807Y30670D01*
X42887Y14670D02*
X42927Y14710D01*
X42967D01*
X42927Y14750D01*
X42967Y14790D01*
X42927D01*
X42887Y14830D01*
X42847Y14790D01*
X42807D01*
X42847Y14750D01*
X42807Y14710D01*
X42847D01*
X42887Y14670D01*
Y15670D02*
X42927Y15710D01*
X42967D01*
X42927Y15750D01*
X42967Y15790D01*
X42927D01*
X42887Y15830D01*
X42847Y15790D01*
X42807D01*
X42847Y15750D01*
X42807Y15710D01*
X42847D01*
X42887Y15670D01*
Y16670D02*
X42927Y16710D01*
X42967D01*
X42927Y16750D01*
X42967Y16790D01*
X42927D01*
X42887Y16830D01*
X42847Y16790D01*
X42807D01*
X42847Y16750D01*
X42807Y16710D01*
X42847D01*
X42887Y16670D01*
Y17670D02*
X42927Y17710D01*
X42967D01*
X42927Y17750D01*
X42967Y17790D01*
X42927D01*
X42887Y17830D01*
X42847Y17790D01*
X42807D01*
X42847Y17750D01*
X42807Y17710D01*
X42847D01*
X42887Y17670D01*
Y18670D02*
X42927Y18710D01*
X42967D01*
X42927Y18750D01*
X42967Y18790D01*
X42927D01*
X42887Y18830D01*
X42847Y18790D01*
X42807D01*
X42847Y18750D01*
X42807Y18710D01*
X42847D01*
X42887Y18670D01*
Y19670D02*
X42927Y19710D01*
X42967D01*
X42927Y19750D01*
X42967Y19790D01*
X42927D01*
X42887Y19830D01*
X42847Y19790D01*
X42807D01*
X42847Y19750D01*
X42807Y19710D01*
X42847D01*
X42887Y19670D01*
Y20670D02*
X42927Y20710D01*
X42967D01*
X42927Y20750D01*
X42967Y20790D01*
X42927D01*
X42887Y20830D01*
X42847Y20790D01*
X42807D01*
X42847Y20750D01*
X42807Y20710D01*
X42847D01*
X42887Y20670D01*
Y21670D02*
X42927Y21710D01*
X42967D01*
X42927Y21750D01*
X42967Y21790D01*
X42927D01*
X42887Y21830D01*
X42847Y21790D01*
X42807D01*
X42847Y21750D01*
X42807Y21710D01*
X42847D01*
X42887Y21670D01*
Y22670D02*
X42927Y22710D01*
X42967D01*
X42927Y22750D01*
X42967Y22790D01*
X42927D01*
X42887Y22830D01*
X42847Y22790D01*
X42807D01*
X42847Y22750D01*
X42807Y22710D01*
X42847D01*
X42887Y22670D01*
Y23670D02*
X42927Y23710D01*
X42967D01*
X42927Y23750D01*
X42967Y23790D01*
X42927D01*
X42887Y23830D01*
X42847Y23790D01*
X42807D01*
X42847Y23750D01*
X42807Y23710D01*
X42847D01*
X42887Y23670D01*
Y24670D02*
X42927Y24710D01*
X42967D01*
X42927Y24750D01*
X42967Y24790D01*
X42927D01*
X42887Y24830D01*
X42847Y24790D01*
X42807D01*
X42847Y24750D01*
X42807Y24710D01*
X42847D01*
X42887Y24670D01*
Y25670D02*
X42927Y25710D01*
X42967D01*
X42927Y25750D01*
X42967Y25790D01*
X42927D01*
X42887Y25830D01*
X42847Y25790D01*
X42807D01*
X42847Y25750D01*
X42807Y25710D01*
X42847D01*
X42887Y25670D01*
Y26670D02*
X42927Y26710D01*
X42967D01*
X42927Y26750D01*
X42967Y26790D01*
X42927D01*
X42887Y26830D01*
X42847Y26790D01*
X42807D01*
X42847Y26750D01*
X42807Y26710D01*
X42847D01*
X42887Y26670D01*
Y27670D02*
X42927Y27710D01*
X42967D01*
X42927Y27750D01*
X42967Y27790D01*
X42927D01*
X42887Y27830D01*
X42847Y27790D01*
X42807D01*
X42847Y27750D01*
X42807Y27710D01*
X42847D01*
X42887Y27670D01*
Y28670D02*
X42927Y28710D01*
X42967D01*
X42927Y28750D01*
X42967Y28790D01*
X42927D01*
X42887Y28830D01*
X42847Y28790D01*
X42807D01*
X42847Y28750D01*
X42807Y28710D01*
X42847D01*
X42887Y28670D01*
Y29670D02*
X42927Y29710D01*
X42967D01*
X42927Y29750D01*
X42967Y29790D01*
X42927D01*
X42887Y29830D01*
X42847Y29790D01*
X42807D01*
X42847Y29750D01*
X42807Y29710D01*
X42847D01*
X42887Y29670D01*
X59907Y33670D02*
X59947Y33750D01*
X59907Y33830D01*
X59987Y33790D01*
X60067Y33830D01*
X60027Y33750D01*
X60067Y33670D01*
X59987Y33710D01*
X59907Y33670D01*
Y32670D02*
X59947Y32750D01*
X59907Y32830D01*
X59987Y32790D01*
X60067Y32830D01*
X60027Y32750D01*
X60067Y32670D01*
X59987Y32710D01*
X59907Y32670D01*
Y31670D02*
X59947Y31750D01*
X59907Y31830D01*
X59987Y31790D01*
X60067Y31830D01*
X60027Y31750D01*
X60067Y31670D01*
X59987Y31710D01*
X59907Y31670D01*
Y30670D02*
X59947Y30750D01*
X59907Y30830D01*
X59987Y30790D01*
X60067Y30830D01*
X60027Y30750D01*
X60067Y30670D01*
X59987Y30710D01*
X59907Y30670D01*
X59987Y14670D02*
X60027Y14710D01*
X60067D01*
X60027Y14750D01*
X60067Y14790D01*
X60027D01*
X59987Y14830D01*
X59947Y14790D01*
X59907D01*
X59947Y14750D01*
X59907Y14710D01*
X59947D01*
X59987Y14670D01*
Y15670D02*
X60027Y15710D01*
X60067D01*
X60027Y15750D01*
X60067Y15790D01*
X60027D01*
X59987Y15830D01*
X59947Y15790D01*
X59907D01*
X59947Y15750D01*
X59907Y15710D01*
X59947D01*
X59987Y15670D01*
Y16670D02*
X60027Y16710D01*
X60067D01*
X60027Y16750D01*
X60067Y16790D01*
X60027D01*
X59987Y16830D01*
X59947Y16790D01*
X59907D01*
X59947Y16750D01*
X59907Y16710D01*
X59947D01*
X59987Y16670D01*
Y17670D02*
X60027Y17710D01*
X60067D01*
X60027Y17750D01*
X60067Y17790D01*
X60027D01*
X59987Y17830D01*
X59947Y17790D01*
X59907D01*
X59947Y17750D01*
X59907Y17710D01*
X59947D01*
X59987Y17670D01*
Y18670D02*
X60027Y18710D01*
X60067D01*
X60027Y18750D01*
X60067Y18790D01*
X60027D01*
X59987Y18830D01*
X59947Y18790D01*
X59907D01*
X59947Y18750D01*
X59907Y18710D01*
X59947D01*
X59987Y18670D01*
Y19670D02*
X60027Y19710D01*
X60067D01*
X60027Y19750D01*
X60067Y19790D01*
X60027D01*
X59987Y19830D01*
X59947Y19790D01*
X59907D01*
X59947Y19750D01*
X59907Y19710D01*
X59947D01*
X59987Y19670D01*
Y20670D02*
X60027Y20710D01*
X60067D01*
X60027Y20750D01*
X60067Y20790D01*
X60027D01*
X59987Y20830D01*
X59947Y20790D01*
X59907D01*
X59947Y20750D01*
X59907Y20710D01*
X59947D01*
X59987Y20670D01*
Y21670D02*
X60027Y21710D01*
X60067D01*
X60027Y21750D01*
X60067Y21790D01*
X60027D01*
X59987Y21830D01*
X59947Y21790D01*
X59907D01*
X59947Y21750D01*
X59907Y21710D01*
X59947D01*
X59987Y21670D01*
Y22670D02*
X60027Y22710D01*
X60067D01*
X60027Y22750D01*
X60067Y22790D01*
X60027D01*
X59987Y22830D01*
X59947Y22790D01*
X59907D01*
X59947Y22750D01*
X59907Y22710D01*
X59947D01*
X59987Y22670D01*
Y23670D02*
X60027Y23710D01*
X60067D01*
X60027Y23750D01*
X60067Y23790D01*
X60027D01*
X59987Y23830D01*
X59947Y23790D01*
X59907D01*
X59947Y23750D01*
X59907Y23710D01*
X59947D01*
X59987Y23670D01*
Y24670D02*
X60027Y24710D01*
X60067D01*
X60027Y24750D01*
X60067Y24790D01*
X60027D01*
X59987Y24830D01*
X59947Y24790D01*
X59907D01*
X59947Y24750D01*
X59907Y24710D01*
X59947D01*
X59987Y24670D01*
Y25670D02*
X60027Y25710D01*
X60067D01*
X60027Y25750D01*
X60067Y25790D01*
X60027D01*
X59987Y25830D01*
X59947Y25790D01*
X59907D01*
X59947Y25750D01*
X59907Y25710D01*
X59947D01*
X59987Y25670D01*
Y26670D02*
X60027Y26710D01*
X60067D01*
X60027Y26750D01*
X60067Y26790D01*
X60027D01*
X59987Y26830D01*
X59947Y26790D01*
X59907D01*
X59947Y26750D01*
X59907Y26710D01*
X59947D01*
X59987Y26670D01*
Y27670D02*
X60027Y27710D01*
X60067D01*
X60027Y27750D01*
X60067Y27790D01*
X60027D01*
X59987Y27830D01*
X59947Y27790D01*
X59907D01*
X59947Y27750D01*
X59907Y27710D01*
X59947D01*
X59987Y27670D01*
Y28670D02*
X60027Y28710D01*
X60067D01*
X60027Y28750D01*
X60067Y28790D01*
X60027D01*
X59987Y28830D01*
X59947Y28790D01*
X59907D01*
X59947Y28750D01*
X59907Y28710D01*
X59947D01*
X59987Y28670D01*
Y29670D02*
X60027Y29710D01*
X60067D01*
X60027Y29750D01*
X60067Y29790D01*
X60027D01*
X59987Y29830D01*
X59947Y29790D01*
X59907D01*
X59947Y29750D01*
X59907Y29710D01*
X59947D01*
X59987Y29670D01*
X57914Y29620D02*
X57954Y29660D01*
X57994D01*
X57954Y29700D01*
X57994Y29740D01*
X57954D01*
X57914Y29780D01*
X57874Y29740D01*
X57834D01*
X57874Y29700D01*
X57834Y29660D01*
X57874D01*
X57914Y29620D01*
Y30407D02*
X57954Y30447D01*
X57994D01*
X57954Y30487D01*
X57994Y30527D01*
X57954D01*
X57914Y30567D01*
X57874Y30527D01*
X57834D01*
X57874Y30487D01*
X57834Y30447D01*
X57874D01*
X57914Y30407D01*
X55946Y28833D02*
X55986Y28873D01*
X56026D01*
X55986Y28913D01*
X56026Y28953D01*
X55986D01*
X55946Y28993D01*
X55906Y28953D01*
X55866D01*
X55906Y28913D01*
X55866Y28873D01*
X55906D01*
X55946Y28833D01*
Y29620D02*
X55986Y29660D01*
X56026D01*
X55986Y29700D01*
X56026Y29740D01*
X55986D01*
X55946Y29780D01*
X55906Y29740D01*
X55866D01*
X55906Y29700D01*
X55866Y29660D01*
X55906D01*
X55946Y29620D01*
Y30407D02*
X55986Y30447D01*
X56026D01*
X55986Y30487D01*
X56026Y30527D01*
X55986D01*
X55946Y30567D01*
X55906Y30527D01*
X55866D01*
X55906Y30487D01*
X55866Y30447D01*
X55906D01*
X55946Y30407D01*
X57914Y28833D02*
X57954Y28873D01*
X57994D01*
X57954Y28913D01*
X57994Y28953D01*
X57954D01*
X57914Y28993D01*
X57874Y28953D01*
X57834D01*
X57874Y28913D01*
X57834Y28873D01*
X57874D01*
X57914Y28833D01*
X46801Y27730D02*
Y27690D01*
X46881D01*
Y27730D01*
X46921D01*
Y27810D01*
X46881D01*
Y27850D01*
X46801D01*
Y27810D01*
X46761D01*
Y27730D01*
X46801D01*
X46653Y27467D02*
Y27427D01*
X46733D01*
Y27467D01*
X46773D01*
Y27547D01*
X46733D01*
Y27587D01*
X46653D01*
Y27547D01*
X46613D01*
Y27467D01*
X46653D01*
X46340Y25210D02*
Y25170D01*
X46420D01*
Y25210D01*
X46460D01*
Y25290D01*
X46420D01*
Y25330D01*
X46340D01*
Y25290D01*
X46300D01*
Y25210D01*
X46340D01*
X50125Y30410D02*
Y30370D01*
X50205D01*
Y30410D01*
X50245D01*
Y30490D01*
X50205D01*
Y30530D01*
X50125D01*
Y30490D01*
X50085D01*
Y30410D01*
X50125D01*
X51340Y31330D02*
Y31290D01*
X51420D01*
Y31330D01*
X51460D01*
Y31410D01*
X51420D01*
Y31450D01*
X51340D01*
Y31410D01*
X51300D01*
Y31330D01*
X51340D01*
X51225Y30410D02*
Y30370D01*
X51305D01*
Y30410D01*
X51345D01*
Y30490D01*
X51305D01*
Y30530D01*
X51225D01*
Y30490D01*
X51185D01*
Y30410D01*
X51225D01*
X54240Y18290D02*
Y18250D01*
X54320D01*
Y18290D01*
X54360D01*
Y18370D01*
X54320D01*
Y18410D01*
X54240D01*
Y18370D01*
X54200D01*
Y18290D01*
X54240D01*
X55490Y16530D02*
Y16490D01*
X55570D01*
Y16530D01*
X55610D01*
Y16610D01*
X55570D01*
Y16650D01*
X55490D01*
Y16610D01*
X55450D01*
Y16530D01*
X55490D01*
X57940Y17970D02*
Y17930D01*
X58020D01*
Y17970D01*
X58060D01*
Y18050D01*
X58020D01*
Y18090D01*
X57940D01*
Y18050D01*
X57900D01*
Y17970D01*
X57940D01*
X53790Y18170D02*
Y18130D01*
X53870D01*
Y18170D01*
X53910D01*
Y18250D01*
X53870D01*
Y18290D01*
X53790D01*
Y18250D01*
X53750D01*
Y18170D01*
X53790D01*
X55490Y17090D02*
Y17050D01*
X55570D01*
Y17090D01*
X55610D01*
Y17170D01*
X55570D01*
Y17210D01*
X55490D01*
Y17170D01*
X55450D01*
Y17090D01*
X55490D01*
X55390Y15130D02*
Y15090D01*
X55470D01*
Y15130D01*
X55510D01*
Y15210D01*
X55470D01*
Y15250D01*
X55390D01*
Y15210D01*
X55350D01*
Y15130D01*
X55390D01*
X49150Y26770D02*
X49190D01*
X49230Y26810D01*
X49270Y26770D01*
X49310D01*
Y26810D01*
X49270Y26850D01*
X49310Y26890D01*
Y26930D01*
X49270D01*
X49230Y26890D01*
X49190Y26930D01*
X49150D01*
Y26890D01*
X49190Y26850D01*
X49150Y26810D01*
Y26770D01*
X48721Y25443D02*
Y25403D01*
X48801D01*
Y25443D01*
X48841D01*
Y25523D01*
X48801D01*
Y25563D01*
X48721D01*
Y25523D01*
X48681D01*
Y25443D01*
X48721D01*
X47690Y29150D02*
Y29110D01*
X47770D01*
Y29150D01*
X47810D01*
Y29230D01*
X47770D01*
Y29270D01*
X47690D01*
Y29230D01*
X47650D01*
Y29150D01*
X47690D01*
X45810Y24820D02*
Y24780D01*
X45890D01*
Y24820D01*
X45930D01*
Y24900D01*
X45890D01*
Y24940D01*
X45810D01*
Y24900D01*
X45770D01*
Y24820D01*
X45810D01*
X44940Y24850D02*
Y24810D01*
X45020D01*
Y24850D01*
X45060D01*
Y24930D01*
X45020D01*
Y24970D01*
X44940D01*
Y24930D01*
X44900D01*
Y24850D01*
X44940D01*
X45110Y28310D02*
Y28270D01*
X45190D01*
Y28310D01*
X45230D01*
Y28390D01*
X45190D01*
Y28430D01*
X45110D01*
Y28390D01*
X45070D01*
Y28310D01*
X45110D01*
X49470Y24900D02*
Y24860D01*
X49550D01*
Y24900D01*
X49590D01*
Y24980D01*
X49550D01*
Y25020D01*
X49470D01*
Y24980D01*
X49430D01*
Y24900D01*
X49470D01*
X43800Y18200D02*
Y18160D01*
X43880D01*
Y18200D01*
X43920D01*
Y18280D01*
X43880D01*
Y18320D01*
X43800D01*
Y18280D01*
X43760D01*
Y18200D01*
X43800D01*
X43300Y17180D02*
Y17140D01*
X43380D01*
Y17180D01*
X43420D01*
Y17260D01*
X43380D01*
Y17300D01*
X43300D01*
Y17260D01*
X43260D01*
Y17180D01*
X43300D01*
Y18200D02*
Y18160D01*
X43380D01*
Y18200D01*
X43420D01*
Y18280D01*
X43380D01*
Y18320D01*
X43300D01*
Y18280D01*
X43260D01*
Y18200D01*
X43300D01*
X45050Y17770D02*
Y17730D01*
X45130D01*
Y17770D01*
X45170D01*
Y17850D01*
X45130D01*
Y17890D01*
X45050D01*
Y17850D01*
X45010D01*
Y17770D01*
X45050D01*
X54710Y20420D02*
Y20380D01*
X54790D01*
Y20420D01*
X54830D01*
Y20500D01*
X54790D01*
Y20540D01*
X54710D01*
Y20500D01*
X54670D01*
Y20420D01*
X54710D01*
X51810Y23430D02*
Y23390D01*
X51890D01*
Y23430D01*
X51930D01*
Y23510D01*
X51890D01*
Y23550D01*
X51810D01*
Y23510D01*
X51770D01*
Y23430D01*
X51810D01*
X51470Y20440D02*
Y20400D01*
X51550D01*
Y20440D01*
X51590D01*
Y20520D01*
X51550D01*
Y20560D01*
X51470D01*
Y20520D01*
X51430D01*
Y20440D01*
X51470D01*
X52270Y26110D02*
Y26070D01*
X52350D01*
Y26110D01*
X52390D01*
Y26190D01*
X52350D01*
Y26230D01*
X52270D01*
Y26190D01*
X52230D01*
Y26110D01*
X52270D01*
X51760Y25550D02*
Y25510D01*
X51840D01*
Y25550D01*
X51880D01*
Y25630D01*
X51840D01*
Y25670D01*
X51760D01*
Y25630D01*
X51720D01*
Y25550D01*
X51760D01*
X51240D02*
Y25510D01*
X51320D01*
Y25550D01*
X51360D01*
Y25630D01*
X51320D01*
Y25670D01*
X51240D01*
Y25630D01*
X51200D01*
Y25550D01*
X51240D01*
X47730Y14850D02*
Y14810D01*
X47810D01*
Y14850D01*
X47850D01*
Y14930D01*
X47810D01*
Y14970D01*
X47730D01*
Y14930D01*
X47690D01*
Y14850D01*
X47730D01*
X47710Y15720D02*
Y15680D01*
X47790D01*
Y15720D01*
X47830D01*
Y15800D01*
X47790D01*
Y15840D01*
X47710D01*
Y15800D01*
X47670D01*
Y15720D01*
X47710D01*
X47720Y16470D02*
Y16430D01*
X47800D01*
Y16470D01*
X47840D01*
Y16550D01*
X47800D01*
Y16590D01*
X47720D01*
Y16550D01*
X47680D01*
Y16470D01*
X47720D01*
X47740Y17370D02*
Y17330D01*
X47820D01*
Y17370D01*
X47860D01*
Y17450D01*
X47820D01*
Y17490D01*
X47740D01*
Y17450D01*
X47700D01*
Y17370D01*
X47740D01*
X51160Y25060D02*
Y25020D01*
X51240D01*
Y25060D01*
X51280D01*
Y25140D01*
X51240D01*
Y25180D01*
X51160D01*
Y25140D01*
X51120D01*
Y25060D01*
X51160D01*
X48410Y21110D02*
Y21070D01*
X48490D01*
Y21110D01*
X48530D01*
Y21190D01*
X48490D01*
Y21230D01*
X48410D01*
Y21190D01*
X48370D01*
Y21110D01*
X48410D01*
X50700Y25640D02*
Y25600D01*
X50780D01*
Y25640D01*
X50820D01*
Y25720D01*
X50780D01*
Y25760D01*
X50700D01*
Y25720D01*
X50660D01*
Y25640D01*
X50700D01*
X47030Y21770D02*
Y21730D01*
X47110D01*
Y21770D01*
X47150D01*
Y21850D01*
X47110D01*
Y21890D01*
X47030D01*
Y21850D01*
X46990D01*
Y21770D01*
X47030D01*
Y21410D02*
Y21370D01*
X47110D01*
Y21410D01*
X47150D01*
Y21490D01*
X47110D01*
Y21530D01*
X47030D01*
Y21490D01*
X46990D01*
Y21410D01*
X47030D01*
X46770Y21770D02*
Y21730D01*
X46850D01*
Y21770D01*
X46890D01*
Y21850D01*
X46850D01*
Y21890D01*
X46770D01*
Y21850D01*
X46730D01*
Y21770D01*
X46770D01*
X46130Y28810D02*
Y28770D01*
X46210D01*
Y28810D01*
X46250D01*
Y28890D01*
X46210D01*
Y28930D01*
X46130D01*
Y28890D01*
X46090D01*
Y28810D01*
X46130D01*
X45725Y28288D02*
Y28248D01*
X45805D01*
Y28288D01*
X45845D01*
Y28368D01*
X45805D01*
Y28408D01*
X45725D01*
Y28368D01*
X45685D01*
Y28288D01*
X45725D01*
Y28810D02*
Y28770D01*
X45805D01*
Y28810D01*
X45845D01*
Y28890D01*
X45805D01*
Y28930D01*
X45725D01*
Y28890D01*
X45685D01*
Y28810D01*
X45725D01*
X45290Y29890D02*
Y29850D01*
X45370D01*
Y29890D01*
X45410D01*
Y29970D01*
X45370D01*
Y30010D01*
X45290D01*
Y29970D01*
X45250D01*
Y29890D01*
X45290D01*
Y30220D02*
Y30180D01*
X45370D01*
Y30220D01*
X45410D01*
Y30300D01*
X45370D01*
Y30340D01*
X45290D01*
Y30300D01*
X45250D01*
Y30220D01*
X45290D01*
X49410Y27240D02*
Y27200D01*
X49490D01*
Y27240D01*
X49530D01*
Y27320D01*
X49490D01*
Y27360D01*
X49410D01*
Y27320D01*
X49370D01*
Y27240D01*
X49410D01*
X55310Y22950D02*
Y22910D01*
X55390D01*
Y22950D01*
X55430D01*
Y23030D01*
X55390D01*
Y23070D01*
X55310D01*
Y23030D01*
X55270D01*
Y22950D01*
X55310D01*
X55960Y22710D02*
Y22670D01*
X56040D01*
Y22710D01*
X56080D01*
Y22790D01*
X56040D01*
Y22830D01*
X55960D01*
Y22790D01*
X55920D01*
Y22710D01*
X55960D01*
X56610Y22440D02*
Y22400D01*
X56690D01*
Y22440D01*
X56730D01*
Y22520D01*
X56690D01*
Y22560D01*
X56610D01*
Y22520D01*
X56570D01*
Y22440D01*
X56610D01*
X57200Y22180D02*
Y22140D01*
X57280D01*
Y22180D01*
X57320D01*
Y22260D01*
X57280D01*
Y22300D01*
X57200D01*
Y22260D01*
X57160D01*
Y22180D01*
X57200D01*
X57840Y22510D02*
Y22470D01*
X57920D01*
Y22510D01*
X57960D01*
Y22590D01*
X57920D01*
Y22630D01*
X57840D01*
Y22590D01*
X57800D01*
Y22510D01*
X57840D01*
X58400Y23690D02*
Y23650D01*
X58480D01*
Y23690D01*
X58520D01*
Y23770D01*
X58480D01*
Y23810D01*
X58400D01*
Y23770D01*
X58360D01*
Y23690D01*
X58400D01*
X58410Y24460D02*
Y24420D01*
X58490D01*
Y24460D01*
X58530D01*
Y24540D01*
X58490D01*
Y24580D01*
X58410D01*
Y24540D01*
X58370D01*
Y24460D01*
X58410D01*
X58380Y25520D02*
Y25480D01*
X58460D01*
Y25520D01*
X58500D01*
Y25600D01*
X58460D01*
Y25640D01*
X58380D01*
Y25600D01*
X58340D01*
Y25520D01*
X58380D01*
X57460Y26220D02*
Y26180D01*
X57540D01*
Y26220D01*
X57580D01*
Y26300D01*
X57540D01*
Y26340D01*
X57460D01*
Y26300D01*
X57420D01*
Y26220D01*
X57460D01*
X56265Y25955D02*
Y25915D01*
X56345D01*
Y25955D01*
X56385D01*
Y26035D01*
X56345D01*
Y26075D01*
X56265D01*
Y26035D01*
X56225D01*
Y25955D01*
X56265D01*
X55390Y25580D02*
Y25540D01*
X55470D01*
Y25580D01*
X55510D01*
Y25660D01*
X55470D01*
Y25700D01*
X55390D01*
Y25660D01*
X55350D01*
Y25580D01*
X55390D01*
X53040Y25910D02*
Y25870D01*
X53120D01*
Y25910D01*
X53160D01*
Y25990D01*
X53120D01*
Y26030D01*
X53040D01*
Y25990D01*
X53000D01*
Y25910D01*
X53040D01*
X55050Y26590D02*
Y26550D01*
X55130D01*
Y26590D01*
X55170D01*
Y26670D01*
X55130D01*
Y26710D01*
X55050D01*
Y26670D01*
X55010D01*
Y26590D01*
X55050D01*
X52810Y25600D02*
Y25560D01*
X52890D01*
Y25600D01*
X52930D01*
Y25680D01*
X52890D01*
Y25720D01*
X52810D01*
Y25680D01*
X52770D01*
Y25600D01*
X52810D01*
Y26130D02*
Y26090D01*
X52890D01*
Y26130D01*
X52930D01*
Y26210D01*
X52890D01*
Y26250D01*
X52810D01*
Y26210D01*
X52770D01*
Y26130D01*
X52810D01*
X54360Y30500D02*
Y30460D01*
X54440D01*
Y30500D01*
X54480D01*
Y30580D01*
X54440D01*
Y30620D01*
X54360D01*
Y30580D01*
X54320D01*
Y30500D01*
X54360D01*
X54930Y19090D02*
Y19050D01*
X55010D01*
Y19090D01*
X55050D01*
Y19170D01*
X55010D01*
Y19210D01*
X54930D01*
Y19170D01*
X54890D01*
Y19090D01*
X54930D01*
X58550Y16710D02*
Y16670D01*
X58630D01*
Y16710D01*
X58670D01*
Y16790D01*
X58630D01*
Y16830D01*
X58550D01*
Y16790D01*
X58510D01*
Y16710D01*
X58550D01*
X51840Y24630D02*
Y24590D01*
X51920D01*
Y24630D01*
X51960D01*
Y24710D01*
X51920D01*
Y24750D01*
X51840D01*
Y24710D01*
X51800D01*
Y24630D01*
X51840D01*
X51580Y24810D02*
Y24770D01*
X51660D01*
Y24810D01*
X51700D01*
Y24890D01*
X51660D01*
Y24930D01*
X51580D01*
Y24890D01*
X51540D01*
Y24810D01*
X51580D01*
X58110Y15170D02*
Y15130D01*
X58190D01*
Y15170D01*
X58230D01*
Y15250D01*
X58190D01*
Y15290D01*
X58110D01*
Y15250D01*
X58070D01*
Y15170D01*
X58110D01*
X50900Y18470D02*
Y18430D01*
X50980D01*
Y18470D01*
X51020D01*
Y18550D01*
X50980D01*
Y18590D01*
X50900D01*
Y18550D01*
X50860D01*
Y18470D01*
X50900D01*
X51690Y18220D02*
Y18180D01*
X51770D01*
Y18220D01*
X51810D01*
Y18300D01*
X51770D01*
Y18340D01*
X51690D01*
Y18300D01*
X51650D01*
Y18220D01*
X51690D01*
X49940Y23970D02*
Y23930D01*
X50020D01*
Y23970D01*
X50060D01*
Y24050D01*
X50020D01*
Y24090D01*
X49940D01*
Y24050D01*
X49900D01*
Y23970D01*
X49940D01*
X49650Y23790D02*
Y23750D01*
X49730D01*
Y23790D01*
X49770D01*
Y23870D01*
X49730D01*
Y23910D01*
X49650D01*
Y23870D01*
X49610D01*
Y23790D01*
X49650D01*
X48600Y26370D02*
Y26330D01*
X48680D01*
Y26370D01*
X48720D01*
Y26450D01*
X48680D01*
Y26490D01*
X48600D01*
Y26450D01*
X48560D01*
Y26370D01*
X48600D01*
X48540Y26080D02*
Y26040D01*
X48620D01*
Y26080D01*
X48660D01*
Y26160D01*
X48620D01*
Y26200D01*
X48540D01*
Y26160D01*
X48500D01*
Y26080D01*
X48540D01*
X47860Y27590D02*
Y27550D01*
X47940D01*
Y27590D01*
X47980D01*
Y27670D01*
X47940D01*
Y27710D01*
X47860D01*
Y27670D01*
X47820D01*
Y27590D01*
X47860D01*
X47440Y28040D02*
Y28000D01*
X47520D01*
Y28040D01*
X47560D01*
Y28120D01*
X47520D01*
Y28160D01*
X47440D01*
Y28120D01*
X47400D01*
Y28040D01*
X47440D01*
X48310Y25760D02*
Y25720D01*
X48390D01*
Y25760D01*
X48430D01*
Y25840D01*
X48390D01*
Y25880D01*
X48310D01*
Y25840D01*
X48270D01*
Y25760D01*
X48310D01*
X50920Y25880D02*
Y25840D01*
X51000D01*
Y25880D01*
X51040D01*
Y25960D01*
X51000D01*
Y26000D01*
X50920D01*
Y25960D01*
X50880D01*
Y25880D01*
X50920D01*
X51150Y26180D02*
Y26140D01*
X51230D01*
Y26180D01*
X51270D01*
Y26260D01*
X51230D01*
Y26300D01*
X51150D01*
Y26260D01*
X51110D01*
Y26180D01*
X51150D01*
X51330Y26450D02*
Y26410D01*
X51410D01*
Y26450D01*
X51450D01*
Y26530D01*
X51410D01*
Y26570D01*
X51330D01*
Y26530D01*
X51290D01*
Y26450D01*
X51330D01*
X51720Y26960D02*
Y26920D01*
X51800D01*
Y26960D01*
X51840D01*
Y27040D01*
X51800D01*
Y27080D01*
X51720D01*
Y27040D01*
X51680D01*
Y26960D01*
X51720D01*
X49600Y17800D02*
Y17760D01*
X49680D01*
Y17800D01*
X49720D01*
Y17880D01*
X49680D01*
Y17920D01*
X49600D01*
Y17880D01*
X49560D01*
Y17800D01*
X49600D01*
X49330D02*
Y17760D01*
X49410D01*
Y17800D01*
X49450D01*
Y17880D01*
X49410D01*
Y17920D01*
X49330D01*
Y17880D01*
X49290D01*
Y17800D01*
X49330D01*
X47530Y29310D02*
Y29270D01*
X47610D01*
Y29310D01*
X47650D01*
Y29390D01*
X47610D01*
Y29430D01*
X47530D01*
Y29390D01*
X47490D01*
Y29310D01*
X47530D01*
X45570Y32610D02*
Y32570D01*
X45650D01*
Y32610D01*
X45690D01*
Y32690D01*
X45650D01*
Y32730D01*
X45570D01*
Y32690D01*
X45530D01*
Y32610D01*
X45570D01*
X49850Y31060D02*
Y31020D01*
X49930D01*
Y31060D01*
X49970D01*
Y31140D01*
X49930D01*
Y31180D01*
X49850D01*
Y31140D01*
X49810D01*
Y31060D01*
X49850D01*
X58520Y20860D02*
Y20820D01*
X58600D01*
Y20860D01*
X58640D01*
Y20940D01*
X58600D01*
Y20980D01*
X58520D01*
Y20940D01*
X58480D01*
Y20860D01*
X58520D01*
X48140Y19270D02*
X48180D01*
X48220Y19310D01*
X48260Y19270D01*
X48300D01*
Y19310D01*
X48260Y19350D01*
X48300Y19390D01*
Y19430D01*
X48260D01*
X48220Y19390D01*
X48180Y19430D01*
X48140D01*
Y19390D01*
X48180Y19350D01*
X48140Y19310D01*
Y19270D01*
X52670Y29570D02*
X52710D01*
X52750Y29610D01*
X52790Y29570D01*
X52830D01*
Y29610D01*
X52790Y29650D01*
X52830Y29690D01*
Y29730D01*
X52790D01*
X52750Y29690D01*
X52710Y29730D01*
X52670D01*
Y29690D01*
X52710Y29650D01*
X52670Y29610D01*
Y29570D01*
X54030Y30010D02*
X54070D01*
X54110Y30050D01*
X54150Y30010D01*
X54190D01*
Y30050D01*
X54150Y30090D01*
X54190Y30130D01*
Y30170D01*
X54150D01*
X54110Y30130D01*
X54070Y30170D01*
X54030D01*
Y30130D01*
X54070Y30090D01*
X54030Y30050D01*
Y30010D01*
X45950Y23125D02*
X45990D01*
X46030Y23165D01*
X46070Y23125D01*
X46110D01*
Y23165D01*
X46070Y23205D01*
X46110Y23245D01*
Y23285D01*
X46070D01*
X46030Y23245D01*
X45990Y23285D01*
X45950D01*
Y23245D01*
X45990Y23205D01*
X45950Y23165D01*
Y23125D01*
X45610Y23130D02*
X45650D01*
X45690Y23170D01*
X45730Y23130D01*
X45770D01*
Y23170D01*
X45730Y23210D01*
X45770Y23250D01*
Y23290D01*
X45730D01*
X45690Y23250D01*
X45650Y23290D01*
X45610D01*
Y23250D01*
X45650Y23210D01*
X45610Y23170D01*
Y23130D01*
X45290Y23125D02*
X45330D01*
X45370Y23165D01*
X45410Y23125D01*
X45450D01*
Y23165D01*
X45410Y23205D01*
X45450Y23245D01*
Y23285D01*
X45410D01*
X45370Y23245D01*
X45330Y23285D01*
X45290D01*
Y23245D01*
X45330Y23205D01*
X45290Y23165D01*
Y23125D01*
X44200Y20440D02*
X44240D01*
X44280Y20480D01*
X44320Y20440D01*
X44360D01*
Y20480D01*
X44320Y20520D01*
X44360Y20560D01*
Y20600D01*
X44320D01*
X44280Y20560D01*
X44240Y20600D01*
X44200D01*
Y20560D01*
X44240Y20520D01*
X44200Y20480D01*
Y20440D01*
X54510Y28780D02*
X54550D01*
X54590Y28820D01*
X54630Y28780D01*
X54670D01*
Y28820D01*
X54630Y28860D01*
X54670Y28900D01*
Y28940D01*
X54630D01*
X54590Y28900D01*
X54550Y28940D01*
X54510D01*
Y28900D01*
X54550Y28860D01*
X54510Y28820D01*
Y28780D01*
X58420Y31500D02*
X58460D01*
X58500Y31540D01*
X58540Y31500D01*
X58580D01*
Y31540D01*
X58540Y31580D01*
X58580Y31620D01*
Y31660D01*
X58540D01*
X58500Y31620D01*
X58460Y31660D01*
X58420D01*
Y31620D01*
X58460Y31580D01*
X58420Y31540D01*
Y31500D01*
X57320Y33880D02*
X57360D01*
X57400Y33920D01*
X57440Y33880D01*
X57480D01*
Y33920D01*
X57440Y33960D01*
X57480Y34000D01*
Y34040D01*
X57440D01*
X57400Y34000D01*
X57360Y34040D01*
X57320D01*
Y34000D01*
X57360Y33960D01*
X57320Y33920D01*
Y33880D01*
X45300Y33500D02*
X45340D01*
X45380Y33540D01*
X45420Y33500D01*
X45460D01*
Y33540D01*
X45420Y33580D01*
X45460Y33620D01*
Y33660D01*
X45420D01*
X45380Y33620D01*
X45340Y33660D01*
X45300D01*
Y33620D01*
X45340Y33580D01*
X45300Y33540D01*
Y33500D01*
X49020Y21740D02*
X49060D01*
X49100Y21780D01*
X49140Y21740D01*
X49180D01*
Y21780D01*
X49140Y21820D01*
X49180Y21860D01*
Y21900D01*
X49140D01*
X49100Y21860D01*
X49060Y21900D01*
X49020D01*
Y21860D01*
X49060Y21820D01*
X49020Y21780D01*
Y21740D01*
X49050Y22210D02*
X49090D01*
X49130Y22250D01*
X49170Y22210D01*
X49210D01*
Y22250D01*
X49170Y22290D01*
X49210Y22330D01*
Y22370D01*
X49170D01*
X49130Y22330D01*
X49090Y22370D01*
X49050D01*
Y22330D01*
X49090Y22290D01*
X49050Y22250D01*
Y22210D01*
X54920Y21230D02*
Y21190D01*
X55000D01*
Y21230D01*
X55040D01*
Y21310D01*
X55000D01*
Y21350D01*
X54920D01*
Y21310D01*
X54880D01*
Y21230D01*
X54920D01*
X54150Y14240D02*
Y14200D01*
X54230D01*
Y14240D01*
X54270D01*
Y14320D01*
X54230D01*
Y14360D01*
X54150D01*
Y14320D01*
X54110D01*
Y14240D01*
X54150D01*
X53780Y14540D02*
Y14500D01*
X53860D01*
Y14540D01*
X53900D01*
Y14620D01*
X53860D01*
Y14660D01*
X53780D01*
Y14620D01*
X53740D01*
Y14540D01*
X53780D01*
X53720Y14160D02*
Y14120D01*
X53800D01*
Y14160D01*
X53840D01*
Y14240D01*
X53800D01*
Y14280D01*
X53720D01*
Y14240D01*
X53680D01*
Y14160D01*
X53720D01*
X54230Y14040D02*
Y14000D01*
X54310D01*
Y14040D01*
X54350D01*
Y14120D01*
X54310D01*
Y14160D01*
X54230D01*
Y14120D01*
X54190D01*
Y14040D01*
X54230D01*
X53270Y15440D02*
Y15400D01*
X53350D01*
Y15440D01*
X53390D01*
Y15520D01*
X53350D01*
Y15560D01*
X53270D01*
Y15520D01*
X53230D01*
Y15440D01*
X53270D01*
X52930Y16050D02*
Y16010D01*
X53010D01*
Y16050D01*
X53050D01*
Y16130D01*
X53010D01*
Y16170D01*
X52930D01*
Y16130D01*
X52890D01*
Y16050D01*
X52930D01*
X48230Y15730D02*
Y15690D01*
X48310D01*
Y15730D01*
X48350D01*
Y15810D01*
X48310D01*
Y15850D01*
X48230D01*
Y15810D01*
X48190D01*
Y15730D01*
X48230D01*
X48700Y15750D02*
Y15710D01*
X48780D01*
Y15750D01*
X48820D01*
Y15830D01*
X48780D01*
Y15870D01*
X48700D01*
Y15830D01*
X48660D01*
Y15750D01*
X48700D01*
X49170Y15740D02*
Y15700D01*
X49250D01*
Y15740D01*
X49290D01*
Y15820D01*
X49250D01*
Y15860D01*
X49170D01*
Y15820D01*
X49130D01*
Y15740D01*
X49170D01*
X49120Y15390D02*
Y15350D01*
X49200D01*
Y15390D01*
X49240D01*
Y15470D01*
X49200D01*
Y15510D01*
X49120D01*
Y15470D01*
X49080D01*
Y15390D01*
X49120D01*
X48720D02*
Y15350D01*
X48800D01*
Y15390D01*
X48840D01*
Y15470D01*
X48800D01*
Y15510D01*
X48720D01*
Y15470D01*
X48680D01*
Y15390D01*
X48720D01*
X48710Y14970D02*
Y14930D01*
X48790D01*
Y14970D01*
X48830D01*
Y15050D01*
X48790D01*
Y15090D01*
X48710D01*
Y15050D01*
X48670D01*
Y14970D01*
X48710D01*
X49080Y14900D02*
Y14860D01*
X49160D01*
Y14900D01*
X49200D01*
Y14980D01*
X49160D01*
Y15020D01*
X49080D01*
Y14980D01*
X49040D01*
Y14900D01*
X49080D01*
X49360Y14210D02*
Y14170D01*
X49440D01*
Y14210D01*
X49480D01*
Y14290D01*
X49440D01*
Y14330D01*
X49360D01*
Y14290D01*
X49320D01*
Y14210D01*
X49360D01*
X49410Y14480D02*
Y14440D01*
X49490D01*
Y14480D01*
X49530D01*
Y14560D01*
X49490D01*
Y14600D01*
X49410D01*
Y14560D01*
X49370D01*
Y14480D01*
X49410D01*
X46770Y21410D02*
Y21370D01*
X46850D01*
Y21410D01*
X46890D01*
Y21490D01*
X46850D01*
Y21530D01*
X46770D01*
Y21490D01*
X46730D01*
Y21410D01*
X46770D01*
X43480Y27580D02*
Y27540D01*
X43560D01*
Y27580D01*
X43600D01*
Y27660D01*
X43560D01*
Y27700D01*
X43480D01*
Y27660D01*
X43440D01*
Y27580D01*
X43480D01*
X43500Y27950D02*
Y27910D01*
X43580D01*
Y27950D01*
X43620D01*
Y28030D01*
X43580D01*
Y28070D01*
X43500D01*
Y28030D01*
X43460D01*
Y27950D01*
X43500D01*
X55110Y28870D02*
Y28830D01*
X55190D01*
Y28870D01*
X55230D01*
Y28950D01*
X55190D01*
Y28990D01*
X55110D01*
Y28950D01*
X55070D01*
Y28870D01*
X55110D01*
X50270Y20120D02*
Y20080D01*
X50350D01*
Y20120D01*
X50390D01*
Y20200D01*
X50350D01*
Y20240D01*
X50270D01*
Y20200D01*
X50230D01*
Y20120D01*
X50270D01*
D86*
X31555Y15667D02*
G03*
X31555Y15667I-80J0D01*
G01*
X33465D02*
G03*
X33465Y15667I-80J0D01*
G01*
X34610Y22950D02*
G03*
X34610Y22950I-80J0D01*
G01*
X33823D02*
G03*
X33823Y22950I-80J0D01*
G01*
X50555Y15667D02*
G03*
X50555Y15667I-80J0D01*
G01*
X52465D02*
G03*
X52465Y15667I-80J0D01*
G01*
X53610Y22950D02*
G03*
X53610Y22950I-80J0D01*
G01*
X52823D02*
G03*
X52823Y22950I-80J0D01*
G01*
M02*
