G04*
G04 #@! TF.GenerationSoftware,Altium Limited,Altium Designer,19.0.4 (130)*
G04*
G04 Layer_Color=32768*
%FSLAX24Y24*%
%MOIN*%
G70*
G01*
G75*
%ADD53C,0.0039*%
%ADD82C,0.0020*%
%ADD83C,0.0010*%
%ADD84C,0.0016*%
D53*
X32591Y25911D02*
X32869Y26189D01*
X32591D02*
X32869Y25911D01*
X32730Y29196D02*
X35876Y26050D01*
X29584D02*
X32730Y22904D01*
X29584Y26050D02*
X32730Y29196D01*
Y22904D02*
X35876Y26050D01*
X25880Y27450D02*
Y28950D01*
Y27450D02*
X29380D01*
Y28950D01*
X25880D02*
X29380D01*
X26430Y23003D02*
Y23397D01*
X26233Y23200D02*
X26627D01*
X24855Y24558D02*
X28005D01*
X24855Y21842D02*
X28005D01*
X24855D02*
Y24558D01*
X28005Y21842D02*
Y24558D01*
X51591Y25911D02*
X51869Y26189D01*
X51591D02*
X51869Y25911D01*
X51730Y29196D02*
X54876Y26050D01*
X48584D02*
X51730Y22904D01*
X48584Y26050D02*
X51730Y29196D01*
Y22904D02*
X54876Y26050D01*
X44880Y27450D02*
Y28950D01*
Y27450D02*
X48380D01*
Y28950D01*
X44880D02*
X48380D01*
X45430Y23003D02*
Y23397D01*
X45233Y23200D02*
X45627D01*
X43855Y24558D02*
X47005D01*
X43855Y21842D02*
X47005D01*
X43855D02*
Y24558D01*
X47005Y21842D02*
Y24558D01*
D82*
X32568Y14600D02*
G03*
X32568Y14600I-138J0D01*
G01*
X40118Y20450D02*
G03*
X40118Y20450I-138J0D01*
G01*
X36968Y19150D02*
G03*
X36968Y19150I-138J0D01*
G01*
X37018Y17250D02*
G03*
X37018Y17250I-138J0D01*
G01*
X33668Y17350D02*
G03*
X33668Y17350I-138J0D01*
G01*
X32868D02*
G03*
X32868Y17350I-138J0D01*
G01*
X32068D02*
G03*
X32068Y17350I-138J0D01*
G01*
X31268D02*
G03*
X31268Y17350I-138J0D01*
G01*
X38418Y24300D02*
G03*
X38418Y24300I-138J0D01*
G01*
X36518D02*
G03*
X36518Y24300I-138J0D01*
G01*
Y25150D02*
G03*
X36518Y25150I-138J0D01*
G01*
Y23400D02*
G03*
X36518Y23400I-138J0D01*
G01*
X29568Y22750D02*
G03*
X29568Y22750I-138J0D01*
G01*
X29168Y21450D02*
G03*
X29168Y21450I-138J0D01*
G01*
X28718Y22750D02*
G03*
X28718Y22750I-138J0D01*
G01*
X29118Y25150D02*
G03*
X29118Y25150I-138J0D01*
G01*
X29118Y24300D02*
G03*
X29118Y24300I-138J0D01*
G01*
X27818Y29400D02*
G03*
X27818Y29400I-138J0D01*
G01*
X27768Y28200D02*
G03*
X27768Y28200I-138J0D01*
G01*
X27968Y16950D02*
G03*
X27968Y16950I-138J0D01*
G01*
X27518Y18250D02*
G03*
X27518Y18250I-138J0D01*
G01*
X27968Y16150D02*
G03*
X27968Y16150I-138J0D01*
G01*
Y15350D02*
G03*
X27968Y15350I-138J0D01*
G01*
Y14550D02*
G03*
X27968Y14550I-138J0D01*
G01*
X40098Y16300D02*
G03*
X40098Y16300I-138J0D01*
G01*
X35368Y21800D02*
G03*
X35368Y21800I-138J0D01*
G01*
X33118D02*
G03*
X33118Y21800I-138J0D01*
G01*
X36018Y30150D02*
G03*
X36018Y30150I-138J0D01*
G01*
X38068Y29700D02*
G03*
X38068Y29700I-138J0D01*
G01*
X35218Y30150D02*
G03*
X35218Y30150I-138J0D01*
G01*
X37018Y15250D02*
G03*
X37018Y15250I-138J0D01*
G01*
X32430Y14403D02*
Y14797D01*
X32233Y14600D02*
X32627D01*
X39980Y20253D02*
Y20647D01*
X39783Y20450D02*
X40177D01*
X36633Y19150D02*
X37027D01*
X36830Y18953D02*
Y19347D01*
X36683Y17250D02*
X37077D01*
X36880Y17053D02*
Y17447D01*
X33530Y17153D02*
Y17547D01*
X33333Y17350D02*
X33727D01*
X32730Y17153D02*
Y17547D01*
X32533Y17350D02*
X32927D01*
X31930Y17153D02*
Y17547D01*
X31733Y17350D02*
X32127D01*
X31130Y17153D02*
Y17547D01*
X30933Y17350D02*
X31327D01*
X38083Y24300D02*
X38477D01*
X38280Y24103D02*
Y24497D01*
X36183Y24300D02*
X36577D01*
X36380Y24103D02*
Y24497D01*
Y24953D02*
Y25347D01*
X36183Y25150D02*
X36577D01*
X36380Y23203D02*
Y23597D01*
X36183Y23400D02*
X36577D01*
X29233Y22750D02*
X29627D01*
X29430Y22553D02*
Y22947D01*
X28833Y21450D02*
X29227D01*
X29030Y21253D02*
Y21647D01*
X28383Y22750D02*
X28777D01*
X28580Y22553D02*
Y22947D01*
X28980Y24953D02*
Y25347D01*
X28783Y25150D02*
X29177D01*
X28980Y24103D02*
Y24497D01*
X28783Y24300D02*
X29177D01*
X27680Y29203D02*
Y29597D01*
X27483Y29400D02*
X27877D01*
X27630Y28003D02*
Y28397D01*
X27433Y28200D02*
X27827D01*
X27830Y16753D02*
Y17147D01*
X27633Y16950D02*
X28027D01*
X27380Y18053D02*
Y18447D01*
X27183Y18250D02*
X27577D01*
X27830Y15953D02*
Y16347D01*
X27633Y16150D02*
X28027D01*
X27830Y15153D02*
Y15547D01*
X27633Y15350D02*
X28027D01*
X27830Y14353D02*
Y14747D01*
X27633Y14550D02*
X28027D01*
X39960Y16103D02*
Y16497D01*
X39763Y16300D02*
X40157D01*
X35033Y21800D02*
X35427D01*
X35230Y21603D02*
Y21997D01*
X32783Y21800D02*
X33177D01*
X32980Y21603D02*
Y21997D01*
X35683Y30150D02*
X36077D01*
X35880Y29953D02*
Y30347D01*
X37930Y29503D02*
Y29897D01*
X37733Y29700D02*
X38127D01*
X35080Y29953D02*
Y30347D01*
X34883Y30150D02*
X35277D01*
X36683Y15250D02*
X37077D01*
X36880Y15053D02*
Y15447D01*
X51568Y14600D02*
G03*
X51568Y14600I-138J0D01*
G01*
X59118Y20450D02*
G03*
X59118Y20450I-138J0D01*
G01*
X55968Y19150D02*
G03*
X55968Y19150I-138J0D01*
G01*
X56018Y17250D02*
G03*
X56018Y17250I-138J0D01*
G01*
X52668Y17350D02*
G03*
X52668Y17350I-138J0D01*
G01*
X51868D02*
G03*
X51868Y17350I-138J0D01*
G01*
X51068D02*
G03*
X51068Y17350I-138J0D01*
G01*
X50268D02*
G03*
X50268Y17350I-138J0D01*
G01*
X57418Y24300D02*
G03*
X57418Y24300I-138J0D01*
G01*
X55518D02*
G03*
X55518Y24300I-138J0D01*
G01*
Y25150D02*
G03*
X55518Y25150I-138J0D01*
G01*
Y23400D02*
G03*
X55518Y23400I-138J0D01*
G01*
X48568Y22750D02*
G03*
X48568Y22750I-138J0D01*
G01*
X48168Y21450D02*
G03*
X48168Y21450I-138J0D01*
G01*
X47718Y22750D02*
G03*
X47718Y22750I-138J0D01*
G01*
X48118Y25150D02*
G03*
X48118Y25150I-138J0D01*
G01*
X48118Y24300D02*
G03*
X48118Y24300I-138J0D01*
G01*
X46818Y29400D02*
G03*
X46818Y29400I-138J0D01*
G01*
X46768Y28200D02*
G03*
X46768Y28200I-138J0D01*
G01*
X46968Y16950D02*
G03*
X46968Y16950I-138J0D01*
G01*
X46518Y18250D02*
G03*
X46518Y18250I-138J0D01*
G01*
X46968Y16150D02*
G03*
X46968Y16150I-138J0D01*
G01*
Y15350D02*
G03*
X46968Y15350I-138J0D01*
G01*
Y14550D02*
G03*
X46968Y14550I-138J0D01*
G01*
X59098Y16300D02*
G03*
X59098Y16300I-138J0D01*
G01*
X54368Y21800D02*
G03*
X54368Y21800I-138J0D01*
G01*
X52118D02*
G03*
X52118Y21800I-138J0D01*
G01*
X55018Y30150D02*
G03*
X55018Y30150I-138J0D01*
G01*
X57068Y29700D02*
G03*
X57068Y29700I-138J0D01*
G01*
X54218Y30150D02*
G03*
X54218Y30150I-138J0D01*
G01*
X56018Y15250D02*
G03*
X56018Y15250I-138J0D01*
G01*
X51430Y14403D02*
Y14797D01*
X51233Y14600D02*
X51627D01*
X58980Y20253D02*
Y20647D01*
X58783Y20450D02*
X59177D01*
X55633Y19150D02*
X56027D01*
X55830Y18953D02*
Y19347D01*
X55683Y17250D02*
X56077D01*
X55880Y17053D02*
Y17447D01*
X52530Y17153D02*
Y17547D01*
X52333Y17350D02*
X52727D01*
X51730Y17153D02*
Y17547D01*
X51533Y17350D02*
X51927D01*
X50930Y17153D02*
Y17547D01*
X50733Y17350D02*
X51127D01*
X50130Y17153D02*
Y17547D01*
X49933Y17350D02*
X50327D01*
X57083Y24300D02*
X57477D01*
X57280Y24103D02*
Y24497D01*
X55183Y24300D02*
X55577D01*
X55380Y24103D02*
Y24497D01*
Y24953D02*
Y25347D01*
X55183Y25150D02*
X55577D01*
X55380Y23203D02*
Y23597D01*
X55183Y23400D02*
X55577D01*
X48233Y22750D02*
X48627D01*
X48430Y22553D02*
Y22947D01*
X47833Y21450D02*
X48227D01*
X48030Y21253D02*
Y21647D01*
X47383Y22750D02*
X47777D01*
X47580Y22553D02*
Y22947D01*
X47980Y24953D02*
Y25347D01*
X47783Y25150D02*
X48177D01*
X47980Y24103D02*
Y24497D01*
X47783Y24300D02*
X48177D01*
X46680Y29203D02*
Y29597D01*
X46483Y29400D02*
X46877D01*
X46630Y28003D02*
Y28397D01*
X46433Y28200D02*
X46827D01*
X46830Y16753D02*
Y17147D01*
X46633Y16950D02*
X47027D01*
X46380Y18053D02*
Y18447D01*
X46183Y18250D02*
X46577D01*
X46830Y15953D02*
Y16347D01*
X46633Y16150D02*
X47027D01*
X46830Y15153D02*
Y15547D01*
X46633Y15350D02*
X47027D01*
X46830Y14353D02*
Y14747D01*
X46633Y14550D02*
X47027D01*
X58960Y16103D02*
Y16497D01*
X58763Y16300D02*
X59157D01*
X54033Y21800D02*
X54427D01*
X54230Y21603D02*
Y21997D01*
X51783Y21800D02*
X52177D01*
X51980Y21603D02*
Y21997D01*
X54683Y30150D02*
X55077D01*
X54880Y29953D02*
Y30347D01*
X56930Y29503D02*
Y29897D01*
X56733Y29700D02*
X57127D01*
X54080Y29953D02*
Y30347D01*
X53883Y30150D02*
X54277D01*
X55683Y15250D02*
X56077D01*
X55880Y15053D02*
Y15447D01*
D83*
X36780Y20000D02*
G03*
X36780Y20000I-50J0D01*
G01*
X28335Y18300D02*
G03*
X28335Y18300I-50J0D01*
G01*
X36651Y20000D02*
X36809D01*
X36730Y19921D02*
Y20079D01*
X28285Y18221D02*
Y18379D01*
X28207Y18300D02*
X28364D01*
X55780Y20000D02*
G03*
X55780Y20000I-50J0D01*
G01*
X47335Y18300D02*
G03*
X47335Y18300I-50J0D01*
G01*
X55651Y20000D02*
X55809D01*
X55730Y19921D02*
Y20079D01*
X47285Y18221D02*
Y18379D01*
X47207Y18300D02*
X47364D01*
D84*
X34207Y22950D02*
G03*
X34207Y22950I-71J0D01*
G01*
X34136Y22850D02*
Y23050D01*
X34036Y22950D02*
X34236D01*
X53207D02*
G03*
X53207Y22950I-71J0D01*
G01*
X53136Y22850D02*
Y23050D01*
X53036Y22950D02*
X53236D01*
M02*
