G04*
G04 #@! TF.GenerationSoftware,Altium Limited,Altium Designer,19.0.4 (130)*
G04*
G04 Layer_Color=16711935*
%FSLAX24Y24*%
%MOIN*%
G70*
G01*
G75*
%ADD48C,0.0240*%
%ADD70R,0.0671X0.0867*%
%ADD71R,0.0395X0.0671*%
%ADD72C,0.0592*%
%ADD73C,0.0474*%
%ADD74C,0.0749*%
%ADD75R,0.0749X0.0749*%
%ADD76C,0.0710*%
%ADD77R,0.0710X0.0710*%
%ADD78R,0.0710X0.0710*%
%ADD79C,0.0671*%
%ADD80R,0.0671X0.0671*%
D48*
X27841Y27770D02*
D03*
X27380Y25250D02*
D03*
X31165Y30450D02*
D03*
X32380Y31370D02*
D03*
X32265Y30450D02*
D03*
X35280Y18330D02*
D03*
X36530Y16570D02*
D03*
X38980Y18010D02*
D03*
X34830Y18210D02*
D03*
X36530Y17130D02*
D03*
X36430Y15170D02*
D03*
X29761Y25483D02*
D03*
X28730Y29190D02*
D03*
X26850Y24860D02*
D03*
X25980Y24890D02*
D03*
X46841Y27770D02*
D03*
X46380Y25250D02*
D03*
X50165Y30450D02*
D03*
X51380Y31370D02*
D03*
X51265Y30450D02*
D03*
X54280Y18330D02*
D03*
X55530Y16570D02*
D03*
X57980Y18010D02*
D03*
X53830Y18210D02*
D03*
X55530Y17130D02*
D03*
X55430Y15170D02*
D03*
X48761Y25483D02*
D03*
X47730Y29190D02*
D03*
X45850Y24860D02*
D03*
X44980Y24890D02*
D03*
D70*
X33857Y14600D02*
D03*
X31003D02*
D03*
X52857D02*
D03*
X50003D02*
D03*
D71*
X31475Y15667D02*
D03*
X33385D02*
D03*
X50475D02*
D03*
X52385D02*
D03*
D72*
X38280Y23355D02*
D03*
Y25245D02*
D03*
X57280Y23355D02*
D03*
Y25245D02*
D03*
D73*
X34530Y22950D02*
D03*
X33743D02*
D03*
X53530D02*
D03*
X52743D02*
D03*
D74*
X25180Y31750D02*
D03*
Y30750D02*
D03*
Y29750D02*
D03*
Y28750D02*
D03*
Y27750D02*
D03*
Y32750D02*
D03*
Y33750D02*
D03*
X23887D02*
D03*
Y32750D02*
D03*
Y31750D02*
D03*
Y30750D02*
D03*
Y15750D02*
D03*
Y16750D02*
D03*
Y17750D02*
D03*
Y18750D02*
D03*
Y19750D02*
D03*
Y20750D02*
D03*
Y21750D02*
D03*
Y22750D02*
D03*
Y23750D02*
D03*
Y24750D02*
D03*
Y25750D02*
D03*
Y26750D02*
D03*
Y27750D02*
D03*
Y28750D02*
D03*
Y29750D02*
D03*
X40987Y33750D02*
D03*
Y32750D02*
D03*
Y31750D02*
D03*
Y30750D02*
D03*
Y15750D02*
D03*
Y16750D02*
D03*
Y17750D02*
D03*
Y18750D02*
D03*
Y19750D02*
D03*
Y20750D02*
D03*
Y21750D02*
D03*
Y22750D02*
D03*
Y23750D02*
D03*
Y24750D02*
D03*
Y25750D02*
D03*
Y26750D02*
D03*
Y27750D02*
D03*
Y28750D02*
D03*
Y29750D02*
D03*
X44180Y31750D02*
D03*
Y30750D02*
D03*
Y29750D02*
D03*
Y28750D02*
D03*
Y27750D02*
D03*
Y32750D02*
D03*
Y33750D02*
D03*
X42887D02*
D03*
Y32750D02*
D03*
Y31750D02*
D03*
Y30750D02*
D03*
Y15750D02*
D03*
Y16750D02*
D03*
Y17750D02*
D03*
Y18750D02*
D03*
Y19750D02*
D03*
Y20750D02*
D03*
Y21750D02*
D03*
Y22750D02*
D03*
Y23750D02*
D03*
Y24750D02*
D03*
Y25750D02*
D03*
Y26750D02*
D03*
Y27750D02*
D03*
Y28750D02*
D03*
Y29750D02*
D03*
X59987Y33750D02*
D03*
Y32750D02*
D03*
Y31750D02*
D03*
Y30750D02*
D03*
Y15750D02*
D03*
Y16750D02*
D03*
Y17750D02*
D03*
Y18750D02*
D03*
Y19750D02*
D03*
Y20750D02*
D03*
Y21750D02*
D03*
Y22750D02*
D03*
Y23750D02*
D03*
Y24750D02*
D03*
Y25750D02*
D03*
Y26750D02*
D03*
Y27750D02*
D03*
Y28750D02*
D03*
Y29750D02*
D03*
D75*
X25180Y26750D02*
D03*
X23887Y14750D02*
D03*
X40987D02*
D03*
X44180Y26750D02*
D03*
X42887Y14750D02*
D03*
X59987D02*
D03*
D76*
X36330Y33450D02*
D03*
Y32450D02*
D03*
X34330D02*
D03*
Y33450D02*
D03*
X33330D02*
D03*
Y32450D02*
D03*
X32330Y33450D02*
D03*
Y32450D02*
D03*
X31330Y33450D02*
D03*
Y32450D02*
D03*
X30330Y33450D02*
D03*
Y32450D02*
D03*
X29330Y33450D02*
D03*
Y32450D02*
D03*
X28330Y33450D02*
D03*
X35330Y32450D02*
D03*
Y33450D02*
D03*
X37330Y32450D02*
D03*
Y33450D02*
D03*
X26080Y16750D02*
D03*
X25080Y15750D02*
D03*
X26080D02*
D03*
X25080Y14750D02*
D03*
X26080D02*
D03*
X55330Y33450D02*
D03*
Y32450D02*
D03*
X53330D02*
D03*
Y33450D02*
D03*
X52330D02*
D03*
Y32450D02*
D03*
X51330Y33450D02*
D03*
Y32450D02*
D03*
X50330Y33450D02*
D03*
Y32450D02*
D03*
X49330Y33450D02*
D03*
Y32450D02*
D03*
X48330Y33450D02*
D03*
Y32450D02*
D03*
X47330Y33450D02*
D03*
X54330Y32450D02*
D03*
Y33450D02*
D03*
X56330Y32450D02*
D03*
Y33450D02*
D03*
X45080Y16750D02*
D03*
X44080Y15750D02*
D03*
X45080D02*
D03*
X44080Y14750D02*
D03*
X45080D02*
D03*
D77*
X28330Y32450D02*
D03*
X47330D02*
D03*
D78*
X25080Y16750D02*
D03*
X44080D02*
D03*
D79*
X38914Y29700D02*
D03*
Y30487D02*
D03*
X36946Y28913D02*
D03*
Y29700D02*
D03*
X38914Y28913D02*
D03*
X57914Y29700D02*
D03*
Y30487D02*
D03*
X55946Y28913D02*
D03*
Y29700D02*
D03*
X57914Y28913D02*
D03*
D80*
X36946Y30487D02*
D03*
X55946D02*
D03*
M02*
