G04*
G04 #@! TF.GenerationSoftware,Altium Limited,Altium Designer,19.0.4 (130)*
G04*
G04 Layer_Color=16711935*
%FSLAX24Y24*%
%MOIN*%
G70*
G01*
G75*
%ADD53C,0.0039*%
%ADD81C,0.0059*%
D53*
X32927Y24602D02*
G03*
X32927Y24602I-197J0D01*
G01*
X32730Y27999D02*
X34679Y26050D01*
X30781Y26050D02*
X32730Y24101D01*
X30781Y26050D02*
X32730Y27999D01*
X32730Y24101D02*
X34679Y26050D01*
X25702Y24519D02*
X27158D01*
X25702Y21881D02*
X27158D01*
X25702D02*
Y24519D01*
X27158Y21881D02*
Y24519D01*
X51927Y24602D02*
G03*
X51927Y24602I-197J0D01*
G01*
X51730Y27999D02*
X53679Y26050D01*
X49781Y26050D02*
X51730Y24101D01*
X49781Y26050D02*
X51730Y27999D01*
X51730Y24101D02*
X53679Y26050D01*
X44702Y24519D02*
X46158D01*
X44702Y21881D02*
X46158D01*
X44702D02*
Y24519D01*
X46158Y21881D02*
Y24519D01*
D81*
X27142Y28650D02*
G03*
X27142Y28650I-112J0D01*
G01*
X26764Y27511D02*
Y28889D01*
Y27511D02*
X28496D01*
Y28889D01*
X26764D02*
X28496D01*
X46142Y28650D02*
G03*
X46142Y28650I-112J0D01*
G01*
X45764Y27511D02*
Y28889D01*
Y27511D02*
X47496D01*
Y28889D01*
X45764D02*
X47496D01*
M02*
