G04*
G04 #@! TF.GenerationSoftware,Altium Limited,Altium Designer,19.0.4 (130)*
G04*
G04 Layer_Color=128*
%FSLAX24Y24*%
%MOIN*%
G70*
G01*
G75*
%ADD85C,0.0020*%
D85*
X33759Y14600D02*
X33956D01*
X33857Y14502D02*
Y14698D01*
X31377Y15667D02*
X31574D01*
X31475Y15568D02*
Y15765D01*
X33286Y15667D02*
X33483D01*
X33385Y15568D02*
Y15765D01*
X30904Y14600D02*
X31101D01*
X31003Y14502D02*
Y14698D01*
X38162Y23355D02*
X38398D01*
X38280Y23237D02*
Y23473D01*
X38162Y25245D02*
X38398D01*
X38280Y25127D02*
Y25363D01*
X34432Y22950D02*
X34628D01*
X34530Y22852D02*
Y23048D01*
X33644Y22950D02*
X33841D01*
X33743Y22852D02*
Y23048D01*
X25003Y31750D02*
X25357D01*
X25180Y31573D02*
Y31927D01*
X25003Y30750D02*
X25357D01*
X25180Y30573D02*
Y30927D01*
X25003Y29750D02*
X25357D01*
X25180Y29573D02*
Y29927D01*
X25003Y28750D02*
X25357D01*
X25180Y28573D02*
Y28927D01*
X25003Y27750D02*
X25357D01*
X25180Y27573D02*
Y27927D01*
X25003Y26750D02*
X25357D01*
X25180Y26573D02*
Y26927D01*
X25003Y32750D02*
X25357D01*
X25180Y32573D02*
Y32927D01*
X25003Y33750D02*
X25357D01*
X25180Y33573D02*
Y33927D01*
X36153Y33450D02*
X36507D01*
X36330Y33273D02*
Y33627D01*
X36153Y32450D02*
X36507D01*
X36330Y32273D02*
Y32627D01*
X34153Y32450D02*
X34507D01*
X34330Y32273D02*
Y32627D01*
X34153Y33450D02*
X34507D01*
X34330Y33273D02*
Y33627D01*
X33153Y33450D02*
X33507D01*
X33330Y33273D02*
Y33627D01*
X33153Y32450D02*
X33507D01*
X33330Y32273D02*
Y32627D01*
X32153Y33450D02*
X32507D01*
X32330Y33273D02*
Y33627D01*
X32153Y32450D02*
X32507D01*
X32330Y32273D02*
Y32627D01*
X31153Y33450D02*
X31507D01*
X31330Y33273D02*
Y33627D01*
X31153Y32450D02*
X31507D01*
X31330Y32273D02*
Y32627D01*
X30153Y33450D02*
X30507D01*
X30330Y33273D02*
Y33627D01*
X30153Y32450D02*
X30507D01*
X30330Y32273D02*
Y32627D01*
X29153Y33450D02*
X29507D01*
X29330Y33273D02*
Y33627D01*
X29153Y32450D02*
X29507D01*
X29330Y32273D02*
Y32627D01*
X28153Y33450D02*
X28507D01*
X28330Y33273D02*
Y33627D01*
X28153Y32450D02*
X28507D01*
X28330Y32273D02*
Y32627D01*
X35153Y32450D02*
X35507D01*
X35330Y32273D02*
Y32627D01*
X35153Y33450D02*
X35507D01*
X35330Y33273D02*
Y33627D01*
X37153Y32450D02*
X37507D01*
X37330Y32273D02*
Y32627D01*
X37153Y33450D02*
X37507D01*
X37330Y33273D02*
Y33627D01*
X24903Y16750D02*
X25257D01*
X25080Y16573D02*
Y16927D01*
X25903Y16750D02*
X26257D01*
X26080Y16573D02*
Y16927D01*
X24903Y15750D02*
X25257D01*
X25080Y15573D02*
Y15927D01*
X25903Y15750D02*
X26257D01*
X26080Y15573D02*
Y15927D01*
X24903Y14750D02*
X25257D01*
X25080Y14573D02*
Y14927D01*
X25903Y14750D02*
X26257D01*
X26080Y14573D02*
Y14927D01*
X23737Y33750D02*
X24037D01*
X23887Y33600D02*
Y33900D01*
X23737Y32750D02*
X24037D01*
X23887Y32600D02*
Y32900D01*
X23737Y31750D02*
X24037D01*
X23887Y31600D02*
Y31900D01*
X23737Y30750D02*
X24037D01*
X23887Y30600D02*
Y30900D01*
X23710Y14750D02*
X24064D01*
X23887Y14573D02*
Y14927D01*
X23710Y15750D02*
X24064D01*
X23887Y15573D02*
Y15927D01*
X23710Y16750D02*
X24064D01*
X23887Y16573D02*
Y16927D01*
X23710Y17750D02*
X24064D01*
X23887Y17573D02*
Y17927D01*
X23710Y18750D02*
X24064D01*
X23887Y18573D02*
Y18927D01*
X23710Y19750D02*
X24064D01*
X23887Y19573D02*
Y19927D01*
X23710Y20750D02*
X24064D01*
X23887Y20573D02*
Y20927D01*
X23710Y21750D02*
X24064D01*
X23887Y21573D02*
Y21927D01*
X23710Y22750D02*
X24064D01*
X23887Y22573D02*
Y22927D01*
X23710Y23750D02*
X24064D01*
X23887Y23573D02*
Y23927D01*
X23710Y24750D02*
X24064D01*
X23887Y24573D02*
Y24927D01*
X23710Y25750D02*
X24064D01*
X23887Y25573D02*
Y25927D01*
X23710Y26750D02*
X24064D01*
X23887Y26573D02*
Y26927D01*
X23710Y27750D02*
X24064D01*
X23887Y27573D02*
Y27927D01*
X23710Y28750D02*
X24064D01*
X23887Y28573D02*
Y28927D01*
X23710Y29750D02*
X24064D01*
X23887Y29573D02*
Y29927D01*
X40837Y33750D02*
X41137D01*
X40987Y33600D02*
Y33900D01*
X40837Y32750D02*
X41137D01*
X40987Y32600D02*
Y32900D01*
X40837Y31750D02*
X41137D01*
X40987Y31600D02*
Y31900D01*
X40837Y30750D02*
X41137D01*
X40987Y30600D02*
Y30900D01*
X40810Y14750D02*
X41164D01*
X40987Y14573D02*
Y14927D01*
X40810Y15750D02*
X41164D01*
X40987Y15573D02*
Y15927D01*
X40810Y16750D02*
X41164D01*
X40987Y16573D02*
Y16927D01*
X40810Y17750D02*
X41164D01*
X40987Y17573D02*
Y17927D01*
X40810Y18750D02*
X41164D01*
X40987Y18573D02*
Y18927D01*
X40810Y19750D02*
X41164D01*
X40987Y19573D02*
Y19927D01*
X40810Y20750D02*
X41164D01*
X40987Y20573D02*
Y20927D01*
X40810Y21750D02*
X41164D01*
X40987Y21573D02*
Y21927D01*
X40810Y22750D02*
X41164D01*
X40987Y22573D02*
Y22927D01*
X40810Y23750D02*
X41164D01*
X40987Y23573D02*
Y23927D01*
X40810Y24750D02*
X41164D01*
X40987Y24573D02*
Y24927D01*
X40810Y25750D02*
X41164D01*
X40987Y25573D02*
Y25927D01*
X40810Y26750D02*
X41164D01*
X40987Y26573D02*
Y26927D01*
X40810Y27750D02*
X41164D01*
X40987Y27573D02*
Y27927D01*
X40810Y28750D02*
X41164D01*
X40987Y28573D02*
Y28927D01*
X40810Y29750D02*
X41164D01*
X40987Y29573D02*
Y29927D01*
X38737Y29700D02*
X39091D01*
X38914Y29523D02*
Y29877D01*
X38737Y30487D02*
X39091D01*
X38914Y30310D02*
Y30665D01*
X36769Y28913D02*
X37123D01*
X36946Y28735D02*
Y29090D01*
X36769Y29700D02*
X37123D01*
X36946Y29523D02*
Y29877D01*
X36769Y30487D02*
X37123D01*
X36946Y30310D02*
Y30665D01*
X38737Y28913D02*
X39091D01*
X38914Y28735D02*
Y29090D01*
X27801Y27770D02*
X27881D01*
X27841Y27730D02*
Y27810D01*
X27653Y27507D02*
X27733D01*
X27693Y27467D02*
Y27547D01*
X27340Y25250D02*
X27420D01*
X27380Y25210D02*
Y25290D01*
X31125Y30450D02*
X31205D01*
X31165Y30410D02*
Y30490D01*
X32340Y31370D02*
X32420D01*
X32380Y31330D02*
Y31410D01*
X32225Y30450D02*
X32305D01*
X32265Y30410D02*
Y30490D01*
X35240Y18330D02*
X35320D01*
X35280Y18290D02*
Y18370D01*
X36490Y16570D02*
X36570D01*
X36530Y16530D02*
Y16610D01*
X38940Y18010D02*
X39020D01*
X38980Y17970D02*
Y18050D01*
X34790Y18210D02*
X34870D01*
X34830Y18170D02*
Y18250D01*
X36490Y17130D02*
X36570D01*
X36530Y17090D02*
Y17170D01*
X36390Y15170D02*
X36470D01*
X36430Y15130D02*
Y15210D01*
X30170Y26850D02*
X30290D01*
X30230Y26790D02*
Y26910D01*
X29721Y25483D02*
X29801D01*
X29761Y25443D02*
Y25523D01*
X28690Y29190D02*
X28770D01*
X28730Y29150D02*
Y29230D01*
X26810Y24860D02*
X26890D01*
X26850Y24820D02*
Y24900D01*
X25940Y24890D02*
X26020D01*
X25980Y24850D02*
Y24930D01*
X26110Y28350D02*
X26190D01*
X26150Y28310D02*
Y28390D01*
X30470Y24940D02*
X30550D01*
X30510Y24900D02*
Y24980D01*
X24800Y18240D02*
X24880D01*
X24840Y18200D02*
Y18280D01*
X24300Y17220D02*
X24380D01*
X24340Y17180D02*
Y17260D01*
X24300Y18240D02*
X24380D01*
X24340Y18200D02*
Y18280D01*
X26050Y17810D02*
X26130D01*
X26090Y17770D02*
Y17850D01*
X35710Y20460D02*
X35790D01*
X35750Y20420D02*
Y20500D01*
X32810Y23470D02*
X32890D01*
X32850Y23430D02*
Y23510D01*
X32470Y20480D02*
X32550D01*
X32510Y20440D02*
Y20520D01*
X33270Y26150D02*
X33350D01*
X33310Y26110D02*
Y26190D01*
X32760Y25590D02*
X32840D01*
X32800Y25550D02*
Y25630D01*
X32240Y25590D02*
X32320D01*
X32280Y25550D02*
Y25630D01*
X28730Y14890D02*
X28810D01*
X28770Y14850D02*
Y14930D01*
X28710Y15760D02*
X28790D01*
X28750Y15720D02*
Y15800D01*
X28720Y16510D02*
X28800D01*
X28760Y16470D02*
Y16550D01*
X28740Y17410D02*
X28820D01*
X28780Y17370D02*
Y17450D01*
X32160Y25100D02*
X32240D01*
X32200Y25060D02*
Y25140D01*
X29410Y21150D02*
X29490D01*
X29450Y21110D02*
Y21190D01*
X31700Y25680D02*
X31780D01*
X31740Y25640D02*
Y25720D01*
X28030Y21810D02*
X28110D01*
X28070Y21770D02*
Y21850D01*
X28030Y21450D02*
X28110D01*
X28070Y21410D02*
Y21490D01*
X27770Y21810D02*
X27850D01*
X27810Y21770D02*
Y21850D01*
X27130Y28850D02*
X27210D01*
X27170Y28810D02*
Y28890D01*
X26725Y28328D02*
X26805D01*
X26765Y28288D02*
Y28368D01*
X26725Y28850D02*
X26805D01*
X26765Y28810D02*
Y28890D01*
X26290Y29930D02*
X26370D01*
X26330Y29890D02*
Y29970D01*
X26290Y30260D02*
X26370D01*
X26330Y30220D02*
Y30300D01*
X30410Y27280D02*
X30490D01*
X30450Y27240D02*
Y27320D01*
X36310Y22990D02*
X36390D01*
X36350Y22950D02*
Y23030D01*
X36960Y22750D02*
X37040D01*
X37000Y22710D02*
Y22790D01*
X37610Y22480D02*
X37690D01*
X37650Y22440D02*
Y22520D01*
X38200Y22220D02*
X38280D01*
X38240Y22180D02*
Y22260D01*
X38840Y22550D02*
X38920D01*
X38880Y22510D02*
Y22590D01*
X39400Y23730D02*
X39480D01*
X39440Y23690D02*
Y23770D01*
X39410Y24500D02*
X39490D01*
X39450Y24460D02*
Y24540D01*
X39380Y25560D02*
X39460D01*
X39420Y25520D02*
Y25600D01*
X38460Y26260D02*
X38540D01*
X38500Y26220D02*
Y26300D01*
X37265Y25995D02*
X37345D01*
X37305Y25955D02*
Y26035D01*
X36390Y25620D02*
X36470D01*
X36430Y25580D02*
Y25660D01*
X34040Y25950D02*
X34120D01*
X34080Y25910D02*
Y25990D01*
X36050Y26630D02*
X36130D01*
X36090Y26590D02*
Y26670D01*
X33810Y25640D02*
X33890D01*
X33850Y25600D02*
Y25680D01*
X33810Y26170D02*
X33890D01*
X33850Y26130D02*
Y26210D01*
X35360Y30540D02*
X35440D01*
X35400Y30500D02*
Y30580D01*
X35930Y19130D02*
X36010D01*
X35970Y19090D02*
Y19170D01*
X39550Y16750D02*
X39630D01*
X39590Y16710D02*
Y16790D01*
X32840Y24670D02*
X32920D01*
X32880Y24630D02*
Y24710D01*
X32580Y24850D02*
X32660D01*
X32620Y24810D02*
Y24890D01*
X39110Y15210D02*
X39190D01*
X39150Y15170D02*
Y15250D01*
X31900Y18510D02*
X31980D01*
X31940Y18470D02*
Y18550D01*
X32690Y18260D02*
X32770D01*
X32730Y18220D02*
Y18300D01*
X30940Y24010D02*
X31020D01*
X30980Y23970D02*
Y24050D01*
X30650Y23830D02*
X30730D01*
X30690Y23790D02*
Y23870D01*
X29600Y26410D02*
X29680D01*
X29640Y26370D02*
Y26450D01*
X29540Y26120D02*
X29620D01*
X29580Y26080D02*
Y26160D01*
X28860Y27630D02*
X28940D01*
X28900Y27590D02*
Y27670D01*
X28440Y28080D02*
X28520D01*
X28480Y28040D02*
Y28120D01*
X29310Y25800D02*
X29390D01*
X29350Y25760D02*
Y25840D01*
X31920Y25920D02*
X32000D01*
X31960Y25880D02*
Y25960D01*
X32150Y26220D02*
X32230D01*
X32190Y26180D02*
Y26260D01*
X32330Y26490D02*
X32410D01*
X32370Y26450D02*
Y26530D01*
X32720Y27000D02*
X32800D01*
X32760Y26960D02*
Y27040D01*
X30600Y17840D02*
X30680D01*
X30640Y17800D02*
Y17880D01*
X30330Y17840D02*
X30410D01*
X30370Y17800D02*
Y17880D01*
X28530Y29350D02*
X28610D01*
X28570Y29310D02*
Y29390D01*
X26570Y32650D02*
X26650D01*
X26610Y32610D02*
Y32690D01*
X30850Y31100D02*
X30930D01*
X30890Y31060D02*
Y31140D01*
X39520Y20900D02*
X39600D01*
X39560Y20860D02*
Y20940D01*
X29160Y19350D02*
X29280D01*
X29220Y19290D02*
Y19410D01*
X33690Y29650D02*
X33810D01*
X33750Y29590D02*
Y29710D01*
X35050Y30090D02*
X35170D01*
X35110Y30030D02*
Y30150D01*
X26970Y23205D02*
X27090D01*
X27030Y23145D02*
Y23265D01*
X26630Y23210D02*
X26750D01*
X26690Y23150D02*
Y23270D01*
X26310Y23205D02*
X26430D01*
X26370Y23145D02*
Y23265D01*
X25220Y20520D02*
X25340D01*
X25280Y20460D02*
Y20580D01*
X35530Y28860D02*
X35650D01*
X35590Y28800D02*
Y28920D01*
X39440Y31580D02*
X39560D01*
X39500Y31520D02*
Y31640D01*
X38340Y33960D02*
X38460D01*
X38400Y33900D02*
Y34020D01*
X26320Y33580D02*
X26440D01*
X26380Y33520D02*
Y33640D01*
X30040Y21820D02*
X30160D01*
X30100Y21760D02*
Y21880D01*
X30070Y22290D02*
X30190D01*
X30130Y22230D02*
Y22350D01*
X35920Y21270D02*
X36000D01*
X35960Y21230D02*
Y21310D01*
X35150Y14280D02*
X35230D01*
X35190Y14240D02*
Y14320D01*
X34780Y14580D02*
X34860D01*
X34820Y14540D02*
Y14620D01*
X34720Y14200D02*
X34800D01*
X34760Y14160D02*
Y14240D01*
X35230Y14080D02*
X35310D01*
X35270Y14040D02*
Y14120D01*
X34270Y15480D02*
X34350D01*
X34310Y15440D02*
Y15520D01*
X33930Y16090D02*
X34010D01*
X33970Y16050D02*
Y16130D01*
X29230Y15770D02*
X29310D01*
X29270Y15730D02*
Y15810D01*
X29700Y15790D02*
X29780D01*
X29740Y15750D02*
Y15830D01*
X30170Y15780D02*
X30250D01*
X30210Y15740D02*
Y15820D01*
X30120Y15430D02*
X30200D01*
X30160Y15390D02*
Y15470D01*
X29720Y15430D02*
X29800D01*
X29760Y15390D02*
Y15470D01*
X29710Y15010D02*
X29790D01*
X29750Y14970D02*
Y15050D01*
X30080Y14940D02*
X30160D01*
X30120Y14900D02*
Y14980D01*
X30360Y14250D02*
X30440D01*
X30400Y14210D02*
Y14290D01*
X30410Y14520D02*
X30490D01*
X30450Y14480D02*
Y14560D01*
X27770Y21450D02*
X27850D01*
X27810Y21410D02*
Y21490D01*
X24480Y27620D02*
X24560D01*
X24520Y27580D02*
Y27660D01*
X24500Y27990D02*
X24580D01*
X24540Y27950D02*
Y28030D01*
X36110Y28910D02*
X36190D01*
X36150Y28870D02*
Y28950D01*
X31270Y20160D02*
X31350D01*
X31310Y20120D02*
Y20200D01*
X52759Y14600D02*
X52956D01*
X52857Y14502D02*
Y14698D01*
X50377Y15667D02*
X50574D01*
X50475Y15568D02*
Y15765D01*
X52286Y15667D02*
X52483D01*
X52385Y15568D02*
Y15765D01*
X49904Y14600D02*
X50101D01*
X50003Y14502D02*
Y14698D01*
X57162Y23355D02*
X57398D01*
X57280Y23237D02*
Y23473D01*
X57162Y25245D02*
X57398D01*
X57280Y25127D02*
Y25363D01*
X53432Y22950D02*
X53628D01*
X53530Y22852D02*
Y23048D01*
X52644Y22950D02*
X52841D01*
X52743Y22852D02*
Y23048D01*
X44003Y31750D02*
X44357D01*
X44180Y31573D02*
Y31927D01*
X44003Y30750D02*
X44357D01*
X44180Y30573D02*
Y30927D01*
X44003Y29750D02*
X44357D01*
X44180Y29573D02*
Y29927D01*
X44003Y28750D02*
X44357D01*
X44180Y28573D02*
Y28927D01*
X44003Y27750D02*
X44357D01*
X44180Y27573D02*
Y27927D01*
X44003Y26750D02*
X44357D01*
X44180Y26573D02*
Y26927D01*
X44003Y32750D02*
X44357D01*
X44180Y32573D02*
Y32927D01*
X44003Y33750D02*
X44357D01*
X44180Y33573D02*
Y33927D01*
X55153Y33450D02*
X55507D01*
X55330Y33273D02*
Y33627D01*
X55153Y32450D02*
X55507D01*
X55330Y32273D02*
Y32627D01*
X53153Y32450D02*
X53507D01*
X53330Y32273D02*
Y32627D01*
X53153Y33450D02*
X53507D01*
X53330Y33273D02*
Y33627D01*
X52153Y33450D02*
X52507D01*
X52330Y33273D02*
Y33627D01*
X52153Y32450D02*
X52507D01*
X52330Y32273D02*
Y32627D01*
X51153Y33450D02*
X51507D01*
X51330Y33273D02*
Y33627D01*
X51153Y32450D02*
X51507D01*
X51330Y32273D02*
Y32627D01*
X50153Y33450D02*
X50507D01*
X50330Y33273D02*
Y33627D01*
X50153Y32450D02*
X50507D01*
X50330Y32273D02*
Y32627D01*
X49153Y33450D02*
X49507D01*
X49330Y33273D02*
Y33627D01*
X49153Y32450D02*
X49507D01*
X49330Y32273D02*
Y32627D01*
X48153Y33450D02*
X48507D01*
X48330Y33273D02*
Y33627D01*
X48153Y32450D02*
X48507D01*
X48330Y32273D02*
Y32627D01*
X47153Y33450D02*
X47507D01*
X47330Y33273D02*
Y33627D01*
X47153Y32450D02*
X47507D01*
X47330Y32273D02*
Y32627D01*
X54153Y32450D02*
X54507D01*
X54330Y32273D02*
Y32627D01*
X54153Y33450D02*
X54507D01*
X54330Y33273D02*
Y33627D01*
X56153Y32450D02*
X56507D01*
X56330Y32273D02*
Y32627D01*
X56153Y33450D02*
X56507D01*
X56330Y33273D02*
Y33627D01*
X43903Y16750D02*
X44257D01*
X44080Y16573D02*
Y16927D01*
X44903Y16750D02*
X45257D01*
X45080Y16573D02*
Y16927D01*
X43903Y15750D02*
X44257D01*
X44080Y15573D02*
Y15927D01*
X44903Y15750D02*
X45257D01*
X45080Y15573D02*
Y15927D01*
X43903Y14750D02*
X44257D01*
X44080Y14573D02*
Y14927D01*
X44903Y14750D02*
X45257D01*
X45080Y14573D02*
Y14927D01*
X42737Y33750D02*
X43037D01*
X42887Y33600D02*
Y33900D01*
X42737Y32750D02*
X43037D01*
X42887Y32600D02*
Y32900D01*
X42737Y31750D02*
X43037D01*
X42887Y31600D02*
Y31900D01*
X42737Y30750D02*
X43037D01*
X42887Y30600D02*
Y30900D01*
X42710Y14750D02*
X43064D01*
X42887Y14573D02*
Y14927D01*
X42710Y15750D02*
X43064D01*
X42887Y15573D02*
Y15927D01*
X42710Y16750D02*
X43064D01*
X42887Y16573D02*
Y16927D01*
X42710Y17750D02*
X43064D01*
X42887Y17573D02*
Y17927D01*
X42710Y18750D02*
X43064D01*
X42887Y18573D02*
Y18927D01*
X42710Y19750D02*
X43064D01*
X42887Y19573D02*
Y19927D01*
X42710Y20750D02*
X43064D01*
X42887Y20573D02*
Y20927D01*
X42710Y21750D02*
X43064D01*
X42887Y21573D02*
Y21927D01*
X42710Y22750D02*
X43064D01*
X42887Y22573D02*
Y22927D01*
X42710Y23750D02*
X43064D01*
X42887Y23573D02*
Y23927D01*
X42710Y24750D02*
X43064D01*
X42887Y24573D02*
Y24927D01*
X42710Y25750D02*
X43064D01*
X42887Y25573D02*
Y25927D01*
X42710Y26750D02*
X43064D01*
X42887Y26573D02*
Y26927D01*
X42710Y27750D02*
X43064D01*
X42887Y27573D02*
Y27927D01*
X42710Y28750D02*
X43064D01*
X42887Y28573D02*
Y28927D01*
X42710Y29750D02*
X43064D01*
X42887Y29573D02*
Y29927D01*
X59837Y33750D02*
X60137D01*
X59987Y33600D02*
Y33900D01*
X59837Y32750D02*
X60137D01*
X59987Y32600D02*
Y32900D01*
X59837Y31750D02*
X60137D01*
X59987Y31600D02*
Y31900D01*
X59837Y30750D02*
X60137D01*
X59987Y30600D02*
Y30900D01*
X59810Y14750D02*
X60164D01*
X59987Y14573D02*
Y14927D01*
X59810Y15750D02*
X60164D01*
X59987Y15573D02*
Y15927D01*
X59810Y16750D02*
X60164D01*
X59987Y16573D02*
Y16927D01*
X59810Y17750D02*
X60164D01*
X59987Y17573D02*
Y17927D01*
X59810Y18750D02*
X60164D01*
X59987Y18573D02*
Y18927D01*
X59810Y19750D02*
X60164D01*
X59987Y19573D02*
Y19927D01*
X59810Y20750D02*
X60164D01*
X59987Y20573D02*
Y20927D01*
X59810Y21750D02*
X60164D01*
X59987Y21573D02*
Y21927D01*
X59810Y22750D02*
X60164D01*
X59987Y22573D02*
Y22927D01*
X59810Y23750D02*
X60164D01*
X59987Y23573D02*
Y23927D01*
X59810Y24750D02*
X60164D01*
X59987Y24573D02*
Y24927D01*
X59810Y25750D02*
X60164D01*
X59987Y25573D02*
Y25927D01*
X59810Y26750D02*
X60164D01*
X59987Y26573D02*
Y26927D01*
X59810Y27750D02*
X60164D01*
X59987Y27573D02*
Y27927D01*
X59810Y28750D02*
X60164D01*
X59987Y28573D02*
Y28927D01*
X59810Y29750D02*
X60164D01*
X59987Y29573D02*
Y29927D01*
X57737Y29700D02*
X58091D01*
X57914Y29523D02*
Y29877D01*
X57737Y30487D02*
X58091D01*
X57914Y30310D02*
Y30665D01*
X55769Y28913D02*
X56123D01*
X55946Y28735D02*
Y29090D01*
X55769Y29700D02*
X56123D01*
X55946Y29523D02*
Y29877D01*
X55769Y30487D02*
X56123D01*
X55946Y30310D02*
Y30665D01*
X57737Y28913D02*
X58091D01*
X57914Y28735D02*
Y29090D01*
X46801Y27770D02*
X46881D01*
X46841Y27730D02*
Y27810D01*
X46653Y27507D02*
X46733D01*
X46693Y27467D02*
Y27547D01*
X46340Y25250D02*
X46420D01*
X46380Y25210D02*
Y25290D01*
X50125Y30450D02*
X50205D01*
X50165Y30410D02*
Y30490D01*
X51340Y31370D02*
X51420D01*
X51380Y31330D02*
Y31410D01*
X51225Y30450D02*
X51305D01*
X51265Y30410D02*
Y30490D01*
X54240Y18330D02*
X54320D01*
X54280Y18290D02*
Y18370D01*
X55490Y16570D02*
X55570D01*
X55530Y16530D02*
Y16610D01*
X57940Y18010D02*
X58020D01*
X57980Y17970D02*
Y18050D01*
X53790Y18210D02*
X53870D01*
X53830Y18170D02*
Y18250D01*
X55490Y17130D02*
X55570D01*
X55530Y17090D02*
Y17170D01*
X55390Y15170D02*
X55470D01*
X55430Y15130D02*
Y15210D01*
X49170Y26850D02*
X49290D01*
X49230Y26790D02*
Y26910D01*
X48721Y25483D02*
X48801D01*
X48761Y25443D02*
Y25523D01*
X47690Y29190D02*
X47770D01*
X47730Y29150D02*
Y29230D01*
X45810Y24860D02*
X45890D01*
X45850Y24820D02*
Y24900D01*
X44940Y24890D02*
X45020D01*
X44980Y24850D02*
Y24930D01*
X45110Y28350D02*
X45190D01*
X45150Y28310D02*
Y28390D01*
X49470Y24940D02*
X49550D01*
X49510Y24900D02*
Y24980D01*
X43800Y18240D02*
X43880D01*
X43840Y18200D02*
Y18280D01*
X43300Y17220D02*
X43380D01*
X43340Y17180D02*
Y17260D01*
X43300Y18240D02*
X43380D01*
X43340Y18200D02*
Y18280D01*
X45050Y17810D02*
X45130D01*
X45090Y17770D02*
Y17850D01*
X54710Y20460D02*
X54790D01*
X54750Y20420D02*
Y20500D01*
X51810Y23470D02*
X51890D01*
X51850Y23430D02*
Y23510D01*
X51470Y20480D02*
X51550D01*
X51510Y20440D02*
Y20520D01*
X52270Y26150D02*
X52350D01*
X52310Y26110D02*
Y26190D01*
X51760Y25590D02*
X51840D01*
X51800Y25550D02*
Y25630D01*
X51240Y25590D02*
X51320D01*
X51280Y25550D02*
Y25630D01*
X47730Y14890D02*
X47810D01*
X47770Y14850D02*
Y14930D01*
X47710Y15760D02*
X47790D01*
X47750Y15720D02*
Y15800D01*
X47720Y16510D02*
X47800D01*
X47760Y16470D02*
Y16550D01*
X47740Y17410D02*
X47820D01*
X47780Y17370D02*
Y17450D01*
X51160Y25100D02*
X51240D01*
X51200Y25060D02*
Y25140D01*
X48410Y21150D02*
X48490D01*
X48450Y21110D02*
Y21190D01*
X50700Y25680D02*
X50780D01*
X50740Y25640D02*
Y25720D01*
X47030Y21810D02*
X47110D01*
X47070Y21770D02*
Y21850D01*
X47030Y21450D02*
X47110D01*
X47070Y21410D02*
Y21490D01*
X46770Y21810D02*
X46850D01*
X46810Y21770D02*
Y21850D01*
X46130Y28850D02*
X46210D01*
X46170Y28810D02*
Y28890D01*
X45725Y28328D02*
X45805D01*
X45765Y28288D02*
Y28368D01*
X45725Y28850D02*
X45805D01*
X45765Y28810D02*
Y28890D01*
X45290Y29930D02*
X45370D01*
X45330Y29890D02*
Y29970D01*
X45290Y30260D02*
X45370D01*
X45330Y30220D02*
Y30300D01*
X49410Y27280D02*
X49490D01*
X49450Y27240D02*
Y27320D01*
X55310Y22990D02*
X55390D01*
X55350Y22950D02*
Y23030D01*
X55960Y22750D02*
X56040D01*
X56000Y22710D02*
Y22790D01*
X56610Y22480D02*
X56690D01*
X56650Y22440D02*
Y22520D01*
X57200Y22220D02*
X57280D01*
X57240Y22180D02*
Y22260D01*
X57840Y22550D02*
X57920D01*
X57880Y22510D02*
Y22590D01*
X58400Y23730D02*
X58480D01*
X58440Y23690D02*
Y23770D01*
X58410Y24500D02*
X58490D01*
X58450Y24460D02*
Y24540D01*
X58380Y25560D02*
X58460D01*
X58420Y25520D02*
Y25600D01*
X57460Y26260D02*
X57540D01*
X57500Y26220D02*
Y26300D01*
X56265Y25995D02*
X56345D01*
X56305Y25955D02*
Y26035D01*
X55390Y25620D02*
X55470D01*
X55430Y25580D02*
Y25660D01*
X53040Y25950D02*
X53120D01*
X53080Y25910D02*
Y25990D01*
X55050Y26630D02*
X55130D01*
X55090Y26590D02*
Y26670D01*
X52810Y25640D02*
X52890D01*
X52850Y25600D02*
Y25680D01*
X52810Y26170D02*
X52890D01*
X52850Y26130D02*
Y26210D01*
X54360Y30540D02*
X54440D01*
X54400Y30500D02*
Y30580D01*
X54930Y19130D02*
X55010D01*
X54970Y19090D02*
Y19170D01*
X58550Y16750D02*
X58630D01*
X58590Y16710D02*
Y16790D01*
X51840Y24670D02*
X51920D01*
X51880Y24630D02*
Y24710D01*
X51580Y24850D02*
X51660D01*
X51620Y24810D02*
Y24890D01*
X58110Y15210D02*
X58190D01*
X58150Y15170D02*
Y15250D01*
X50900Y18510D02*
X50980D01*
X50940Y18470D02*
Y18550D01*
X51690Y18260D02*
X51770D01*
X51730Y18220D02*
Y18300D01*
X49940Y24010D02*
X50020D01*
X49980Y23970D02*
Y24050D01*
X49650Y23830D02*
X49730D01*
X49690Y23790D02*
Y23870D01*
X48600Y26410D02*
X48680D01*
X48640Y26370D02*
Y26450D01*
X48540Y26120D02*
X48620D01*
X48580Y26080D02*
Y26160D01*
X47860Y27630D02*
X47940D01*
X47900Y27590D02*
Y27670D01*
X47440Y28080D02*
X47520D01*
X47480Y28040D02*
Y28120D01*
X48310Y25800D02*
X48390D01*
X48350Y25760D02*
Y25840D01*
X50920Y25920D02*
X51000D01*
X50960Y25880D02*
Y25960D01*
X51150Y26220D02*
X51230D01*
X51190Y26180D02*
Y26260D01*
X51330Y26490D02*
X51410D01*
X51370Y26450D02*
Y26530D01*
X51720Y27000D02*
X51800D01*
X51760Y26960D02*
Y27040D01*
X49600Y17840D02*
X49680D01*
X49640Y17800D02*
Y17880D01*
X49330Y17840D02*
X49410D01*
X49370Y17800D02*
Y17880D01*
X47530Y29350D02*
X47610D01*
X47570Y29310D02*
Y29390D01*
X45570Y32650D02*
X45650D01*
X45610Y32610D02*
Y32690D01*
X49850Y31100D02*
X49930D01*
X49890Y31060D02*
Y31140D01*
X58520Y20900D02*
X58600D01*
X58560Y20860D02*
Y20940D01*
X48160Y19350D02*
X48280D01*
X48220Y19290D02*
Y19410D01*
X52690Y29650D02*
X52810D01*
X52750Y29590D02*
Y29710D01*
X54050Y30090D02*
X54170D01*
X54110Y30030D02*
Y30150D01*
X45970Y23205D02*
X46090D01*
X46030Y23145D02*
Y23265D01*
X45630Y23210D02*
X45750D01*
X45690Y23150D02*
Y23270D01*
X45310Y23205D02*
X45430D01*
X45370Y23145D02*
Y23265D01*
X44220Y20520D02*
X44340D01*
X44280Y20460D02*
Y20580D01*
X54530Y28860D02*
X54650D01*
X54590Y28800D02*
Y28920D01*
X58440Y31580D02*
X58560D01*
X58500Y31520D02*
Y31640D01*
X57340Y33960D02*
X57460D01*
X57400Y33900D02*
Y34020D01*
X45320Y33580D02*
X45440D01*
X45380Y33520D02*
Y33640D01*
X49040Y21820D02*
X49160D01*
X49100Y21760D02*
Y21880D01*
X49070Y22290D02*
X49190D01*
X49130Y22230D02*
Y22350D01*
X54920Y21270D02*
X55000D01*
X54960Y21230D02*
Y21310D01*
X54150Y14280D02*
X54230D01*
X54190Y14240D02*
Y14320D01*
X53780Y14580D02*
X53860D01*
X53820Y14540D02*
Y14620D01*
X53720Y14200D02*
X53800D01*
X53760Y14160D02*
Y14240D01*
X54230Y14080D02*
X54310D01*
X54270Y14040D02*
Y14120D01*
X53270Y15480D02*
X53350D01*
X53310Y15440D02*
Y15520D01*
X52930Y16090D02*
X53010D01*
X52970Y16050D02*
Y16130D01*
X48230Y15770D02*
X48310D01*
X48270Y15730D02*
Y15810D01*
X48700Y15790D02*
X48780D01*
X48740Y15750D02*
Y15830D01*
X49170Y15780D02*
X49250D01*
X49210Y15740D02*
Y15820D01*
X49120Y15430D02*
X49200D01*
X49160Y15390D02*
Y15470D01*
X48720Y15430D02*
X48800D01*
X48760Y15390D02*
Y15470D01*
X48710Y15010D02*
X48790D01*
X48750Y14970D02*
Y15050D01*
X49080Y14940D02*
X49160D01*
X49120Y14900D02*
Y14980D01*
X49360Y14250D02*
X49440D01*
X49400Y14210D02*
Y14290D01*
X49410Y14520D02*
X49490D01*
X49450Y14480D02*
Y14560D01*
X46770Y21450D02*
X46850D01*
X46810Y21410D02*
Y21490D01*
X43480Y27620D02*
X43560D01*
X43520Y27580D02*
Y27660D01*
X43500Y27990D02*
X43580D01*
X43540Y27950D02*
Y28030D01*
X55110Y28910D02*
X55190D01*
X55150Y28870D02*
Y28950D01*
X50270Y20160D02*
X50350D01*
X50310Y20120D02*
Y20200D01*
M02*
